<svg width="375" height="314" viewBox="0 0 375 314" fill="none" xmlns="http://www.w3.org/2000/svg">
<mask id="mask0_247_8284" style="mask-type:alpha" maskUnits="userSpaceOnUse" x="0" y="0" width="375" height="314">
<rect width="375" height="314" fill="#C4C4C4"/>
</mask>
<g mask="url(#mask0_247_8284)">
<path opacity="0.1" d="M451.584 -9.14674C337.403 159.658 292.01 24.6542 206.42 45.0418C120.83 65.4294 119.379 136.979 47.5708 146.324C-24.2378 155.67 -54.1877 82.7143 -68.4834 57.9692C-82.7792 33.2241 -179.749 -81.7457 -318 -46.5277" stroke="#11004D" stroke-width="0.5"/>
<path opacity="0.1" d="M-176.677 90.2954C-103.566 121.912 -68.2399 55.7148 4.41488 66.3419C69.9826 75.9325 85.6783 148.114 159.476 119.834C221.002 96.2571 219.674 150.894 267.387 136.064C316.145 120.909 323.097 39.5038 366.388 22.553" stroke="#11004D" stroke-width="0.5"/>
<path d="M169.824 196.011L133.446 195.832L133.457 193.006L169.836 193.185L169.824 196.011Z" fill="#E0E0E0"/>
<path d="M158.807 267.427V295.683C158.807 300.796 162.951 304.94 168.063 304.94H269.383C274.496 304.94 278.64 300.796 278.64 295.683V271.808L291.254 258.555L168.092 258.17C162.969 258.154 158.807 262.303 158.807 267.427Z" fill="#CEC6E5"/>
<path d="M264.147 274.554L172.206 274.13L172.216 271.304L264.157 271.729L264.147 274.554Z" fill="#E0E0E0"/>
<path d="M264.147 283.853L172.206 283.429L172.216 280.603L264.157 281.027L264.147 283.853Z" fill="#E0E0E0"/>
<path d="M264.147 292.91L227.769 292.731L227.78 289.906L264.158 290.084L264.147 292.91Z" fill="#E0E0E0"/>
<path opacity="0.2" d="M119.083 63.346H178.842C181.8 63.346 184.198 65.7436 184.198 68.7018V97.9312C184.198 100.889 181.8 103.288 178.842 103.288H128.132C125.174 103.288 122.776 100.889 122.776 97.9312V67.0391L119.083 63.346Z" fill="#225EFF"/>
<path opacity="0.8" d="M153.726 91.7613V110.503C153.726 113.893 150.977 116.642 147.586 116.642H80.3863C76.9951 116.642 74.2463 113.893 74.2463 110.503V94.6672L65.8801 85.8775L147.567 85.6219C150.965 85.6112 153.726 88.3629 153.726 91.7613Z" fill="#51C469"/>
<path d="M84.1503 96.978L145.13 96.6963L145.124 94.8224L84.1444 95.1042L84.1503 96.978Z" fill="white"/>
<path d="M84.1503 103.147L145.13 102.865L145.124 100.991L84.1444 101.273L84.1503 103.147Z" fill="white"/>
<path d="M84.1521 109.153L108.28 109.035L108.273 107.161L84.1444 107.279L84.1521 109.153Z" fill="white"/>
<path opacity="0.6" d="M281.028 178.668V197.409C281.028 200.799 278.279 203.549 274.888 203.549H207.688C204.298 203.549 201.549 200.799 201.549 197.409V181.574L193.182 172.783L274.869 172.528C278.267 172.518 281.028 175.269 281.028 178.668Z" fill="#ECEAF2"/>
<path d="M211.455 183.883L272.434 183.602L272.428 181.728L211.449 182.009L211.455 183.883Z" fill="white"/>
<path d="M211.455 190.05L272.434 189.768L272.428 187.894L211.449 188.176L211.455 190.05Z" fill="white"/>
<path d="M211.454 196.06L235.582 195.942L235.574 194.068L211.446 194.186L211.454 196.06Z" fill="white"/>
<path d="M223.46 271.705C213.416 261.925 213.251 246.796 215.864 233.65C216.301 231.456 216.439 229.089 217.806 227.325C219.172 225.561 221.839 224.638 223.662 225.892C225.175 226.931 225.576 228.955 226.235 230.682C227.111 232.979 228.644 235.012 230.602 236.472C231.887 237.431 233.553 238.162 235.065 237.624C237.14 236.885 237.796 234.292 238.141 232.095C238.785 227.999 239.43 223.905 240.074 219.811C240.42 217.614 240.78 215.372 241.804 213.4C242.827 211.429 244.653 209.741 246.836 209.498C249.02 209.255 251.404 210.882 251.494 213.102C251.531 214.026 251.197 214.924 251.108 215.845C251.02 216.766 251.28 217.843 252.104 218.239C252.937 218.64 253.918 218.161 254.679 217.627C257.307 215.782 259.311 213.179 261.213 210.575C263.115 207.971 264.985 205.292 267.436 203.212C269.888 201.131 273.044 199.681 276.216 200.018C279.389 200.355 282.42 202.843 282.709 206.059C282.999 209.284 280.68 212.128 278.305 214.31C274.783 217.55 270.797 220.271 266.513 222.363C265.741 222.741 264.904 223.149 264.506 223.919C263.79 225.304 264.939 226.984 266.305 227.702C267.851 228.515 269.655 228.636 271.333 229.117C273.011 229.599 274.741 230.657 275.124 232.38C275.656 234.771 273.395 236.816 271.296 238.054C267.095 240.532 262.475 242.277 257.702 243.19C255.991 243.516 254.206 243.756 252.719 244.677C251.231 245.599 250.122 247.442 250.656 249.117C251.19 250.793 253.127 251.619 254.87 251.582C256.612 251.545 258.276 250.875 259.988 250.53C263.191 249.886 267.051 250.732 268.556 253.654C269.545 255.576 269.267 257.98 268.29 259.918C267.314 261.855 265.723 263.401 264.075 264.797C258.312 269.677 251.376 273.23 243.982 274.51C236.588 275.792 229.998 275.386 223.46 271.705Z" fill="#3BBD97"/>
<path d="M221.684 281.479C223.02 276.321 225.181 270.323 228.231 263.977C231.269 257.624 235.177 250.937 239.504 244.082C240.592 242.373 241.668 240.684 242.728 239.019C243.789 237.36 244.842 235.714 245.971 234.168C248.216 231.065 250.611 228.254 252.968 225.656C255.324 223.056 257.656 220.675 259.851 218.465C262.053 216.258 264.143 214.24 266.127 212.482C270.086 208.949 273.609 206.484 276.097 204.89C277.34 204.088 278.324 203.499 278.997 203.108C279.32 202.923 279.574 202.777 279.765 202.668C279.939 202.572 280.029 202.525 280.033 202.531C280.037 202.537 279.953 202.596 279.786 202.704C279.6 202.822 279.353 202.98 279.038 203.179C278.381 203.593 277.411 204.205 276.182 205.024C273.725 206.658 270.24 209.151 266.318 212.701C264.352 214.467 262.278 216.492 260.091 218.707C257.906 220.926 255.588 223.312 253.244 225.912C250.902 228.511 248.522 231.318 246.294 234.406C245.173 235.945 244.132 237.577 243.069 239.242C242.01 240.906 240.936 242.594 239.848 244.303C235.525 251.153 231.617 257.818 228.569 264.143C225.51 270.461 223.33 276.423 221.963 281.554" fill="#11004D"/>
<path d="M246.089 234.174C246.061 234.174 246.042 233.828 246.028 233.202C246.012 232.577 246.019 231.672 246.044 230.553C246.091 228.317 246.262 225.231 246.463 221.83C246.665 218.427 246.792 215.348 246.805 213.117C246.815 212.002 246.814 211.099 246.804 210.475C246.799 209.85 246.81 209.504 246.838 209.502C246.867 209.5 246.909 209.843 246.963 210.467C247.021 211.09 247.067 211.995 247.093 213.113C247.155 215.352 247.073 218.445 246.871 221.852C246.664 225.208 246.476 228.244 246.333 230.564C246.274 231.612 246.226 232.495 246.188 233.205C246.151 233.828 246.118 234.174 246.089 234.174Z" fill="#11004D"/>
<path d="M275.168 233.52C275.164 233.547 274.755 233.528 274.021 233.47C273.286 233.416 272.223 233.332 270.908 233.27C268.277 233.126 264.637 233.054 260.618 233.151C256.597 233.254 252.962 233.503 250.339 233.758C249.025 233.877 247.966 234.001 247.232 234.083C246.499 234.168 246.091 234.201 246.087 234.173C246.082 234.145 246.483 234.058 247.21 233.923C247.938 233.793 248.996 233.624 250.309 233.467C252.932 233.136 256.577 232.84 260.61 232.737C264.641 232.64 268.294 232.758 270.928 232.978C272.245 233.078 273.307 233.206 274.039 233.31C274.77 233.418 275.171 233.49 275.168 233.52Z" fill="#11004D"/>
<path d="M228.662 263.517C228.648 263.521 228.601 263.392 228.525 263.141C228.439 262.844 228.335 262.481 228.209 262.042C227.939 261.085 227.586 259.691 227.17 257.963C226.338 254.508 225.339 249.699 224.308 244.377C223.276 239.053 222.323 234.241 221.565 230.773C221.19 229.086 220.882 227.699 220.654 226.667C220.557 226.22 220.477 225.852 220.413 225.549C220.362 225.293 220.341 225.156 220.355 225.151C220.369 225.148 220.416 225.277 220.493 225.528C220.577 225.826 220.682 226.187 220.808 226.628C221.078 227.584 221.432 228.977 221.846 230.706C222.679 234.161 223.678 238.97 224.709 244.295C225.741 249.617 226.694 254.429 227.452 257.897C227.827 259.583 228.134 260.971 228.363 262.001C228.46 262.448 228.539 262.818 228.604 263.12C228.655 263.377 228.676 263.514 228.662 263.517Z" fill="#11004D"/>
<path d="M268.139 257.569C268.14 257.583 268.003 257.614 267.742 257.661C267.433 257.712 267.053 257.773 266.593 257.849C265.534 258.009 264.104 258.227 262.364 258.492C258.794 259.037 253.871 259.845 248.433 260.746C242.994 261.648 238.059 262.411 234.476 262.882C232.685 263.118 231.233 263.294 230.229 263.395C229.765 263.439 229.381 263.475 229.071 263.505C228.805 263.526 228.664 263.529 228.663 263.515C228.661 263.501 228.799 263.47 229.061 263.422C229.369 263.372 229.748 263.311 230.21 263.236C231.268 263.074 232.697 262.857 234.437 262.592C238.007 262.048 242.93 261.239 248.37 260.338C253.809 259.436 258.743 258.673 262.325 258.202C264.117 257.966 265.568 257.79 266.573 257.689C267.038 257.645 267.42 257.608 267.732 257.579C267.997 257.558 268.137 257.555 268.139 257.569Z" fill="#11004D"/>
<path d="M123.675 138.323C121.842 136.902 121.022 134.384 121.405 132.095C121.788 129.807 123.265 127.781 125.179 126.469C126.064 125.862 127.161 125.381 128.19 125.683C129.152 125.966 129.822 126.902 130.017 127.887C130.212 128.87 130.002 129.892 129.673 130.84C128.548 134.091 126.863 137.03 123.675 138.323Z" fill="#3BBD97"/>
<path d="M120.668 143.878C117.054 140.581 111.783 139.201 107.017 140.304C105.803 140.586 104.438 141.226 104.237 142.456C104.037 143.688 105.137 144.732 106.217 145.358C110.709 147.962 116.794 147.473 120.811 144.184" fill="#3BBD97"/>
<path d="M103.255 118.171C105.258 117.622 107.454 118.116 109.227 119.199C111 120.282 112.387 121.906 113.498 123.661C115.648 127.056 116.405 131.62 116.501 135.638C112.041 135.458 108.23 131.952 106.408 130.053C103.529 127.05 100.149 119.876 103.255 118.171Z" fill="#3BBD97"/>
<path d="M127.414 149.946C127.153 149.472 126.727 149.136 126.302 148.265C125.464 146.525 124.336 144.05 123.79 141.104C123.245 138.154 123.614 135.37 124.347 133.551C124.704 132.637 125.104 131.945 125.425 131.504C125.745 131.06 125.956 130.844 125.976 130.86C126.053 130.91 125.264 131.846 124.646 133.659C124.011 135.455 123.703 138.15 124.233 141.024C124.766 143.9 125.83 146.364 126.591 148.132" fill="#11004D"/>
<path d="M127.456 149.997C126.859 149.227 126.077 148.219 125.134 147.002C123.179 144.469 120.471 140.976 117.428 137.157C114.386 133.34 111.586 129.92 109.553 127.449C108.577 126.258 107.769 125.271 107.151 124.517C106.589 123.821 106.288 123.426 106.312 123.406C106.336 123.386 106.681 123.741 107.284 124.403C107.889 125.063 108.748 126.034 109.796 127.244C111.893 129.664 114.735 133.055 117.781 136.876C120.826 140.699 123.498 144.226 125.388 146.811C126.334 148.103 127.088 149.156 127.597 149.893" fill="#11004D"/>
<path d="M109.802 142.943C109.795 142.912 110.069 142.83 110.576 142.706C110.828 142.639 111.139 142.57 111.507 142.528C111.874 142.481 112.292 142.403 112.759 142.394C113.691 142.321 114.808 142.36 116.035 142.519C117.258 142.702 118.588 143.022 119.924 143.532C121.254 144.059 122.45 144.722 123.476 145.413C124.488 146.125 125.338 146.852 125.975 147.535C126.313 147.857 126.568 148.197 126.807 148.479C127.05 148.759 127.233 149.021 127.374 149.24C127.663 149.673 127.622 149.876 127.597 149.894C127.525 149.946 127.071 149.033 125.75 147.76C125.097 147.119 124.244 146.434 123.244 145.757C122.229 145.101 121.058 144.466 119.761 143.952C118.457 143.455 117.165 143.131 115.974 142.928C114.779 142.752 113.688 142.681 112.772 142.712C110.939 142.758 109.819 143.029 109.802 142.943Z" fill="#11004D"/>
<path d="M209.314 294.296L140.802 293.98C132.561 293.942 125.912 287.233 125.947 278.993L126.673 107.231C126.707 98.9862 133.421 92.3319 141.666 92.3698L210.178 92.6866C218.419 92.7246 225.068 99.4334 225.033 107.673L224.307 279.436C224.272 287.681 217.558 294.334 209.314 294.296Z" fill="#282A30"/>
<path d="M210.08 98.6171L196.797 98.556C195.016 98.5477 193.565 100.051 193.558 101.913L193.547 104.322C193.539 106.185 192.089 107.688 190.307 107.68L164.415 107.56C162.634 107.552 161.196 106.035 161.204 104.173L161.214 101.763C161.222 99.9013 159.784 98.3846 158.003 98.3769L153.331 98.3549L141.705 98.3015C135.931 98.2748 131.229 102.935 131.205 108.709L130.496 276.362C130.471 282.133 135.129 286.831 140.9 286.858L209.275 287.173C215.049 287.2 219.751 282.54 219.775 276.766L220.484 109.113C220.508 103.342 215.851 98.6438 210.08 98.6171Z" fill="#FAFAFA"/>
<path d="M172.562 271.331C172.56 271.883 172.111 272.328 171.559 272.325C171.007 272.322 170.561 271.872 170.562 271.32C170.565 270.768 171.014 270.322 171.566 270.325C172.118 270.328 172.564 270.778 172.562 271.331Z" fill="#11004D"/>
<path d="M176.934 271.353C176.932 271.905 176.483 272.35 175.93 272.347C175.378 272.344 174.932 271.894 174.934 271.342C174.936 270.79 175.385 270.344 175.938 270.347C176.49 270.35 176.936 270.8 176.934 271.353Z" fill="#11004D"/>
<path d="M181.305 271.371C181.303 271.924 180.854 272.369 180.301 272.366C179.749 272.363 179.303 271.913 179.305 271.361C179.307 270.809 179.756 270.363 180.308 270.366C180.861 270.369 181.307 270.819 181.305 271.371Z" fill="#11004D"/>
<path opacity="0.5" d="M151.641 179.437C152.754 179.596 219.966 192.778 219.966 192.778V179.437H151.641Z" fill="#EBEBEB"/>
<path d="M130.496 264.139C130.496 264.139 203.609 253.796 202.972 254.114C202.336 254.433 130.496 254.114 130.496 254.114V264.139Z" fill="#EBEBEB"/>
<path d="M215.403 68.3983C215.489 68.3983 215.557 72.0944 215.557 76.6536C215.557 81.2133 215.489 84.9094 215.403 84.9094C215.317 84.9094 215.248 81.2133 215.248 76.6536C215.248 72.0944 215.317 68.3983 215.403 68.3983Z" fill="#11004D"/>
<path d="M244.659 87.3962C244.694 87.4745 241.34 89.0298 237.169 90.8704C232.997 92.7116 229.588 94.1406 229.554 94.0629C229.519 93.9846 232.873 92.4293 237.044 90.5881C241.215 88.7474 244.625 87.3185 244.659 87.3962Z" fill="#11004D"/>
<path d="M243.919 58.5866C243.929 58.592 243.874 58.7005 243.76 58.9028C243.628 59.1312 243.46 59.4212 243.253 59.7771C242.811 60.5358 242.147 61.619 241.318 62.9524C239.657 65.6176 237.267 69.2389 234.56 73.1895C231.851 77.1406 229.435 80.7383 227.728 83.3708C226.894 84.6627 226.211 85.7204 225.712 86.4921C225.485 86.8355 225.301 87.1149 225.155 87.3362C225.025 87.5272 224.952 87.6251 224.944 87.6191C224.935 87.6138 224.989 87.5052 225.102 87.3036C225.235 87.0746 225.403 86.7851 225.61 86.4286C226.052 85.6705 226.715 84.5874 227.545 83.2533C229.205 80.5888 231.597 76.9668 234.304 73.0151C237.011 69.0651 239.428 65.4681 241.134 62.8356C241.969 61.5436 242.652 60.486 243.151 59.7137C243.378 59.3702 243.562 59.0908 243.707 58.8702C243.837 58.6786 243.91 58.5807 243.919 58.5866Z" fill="#11004D"/>
<path d="M284.932 128.42H151.203C148.315 128.42 145.973 130.761 145.973 133.649V175.131C145.973 178.019 148.315 180.36 151.203 180.36H161.166C161.968 184.692 162.907 190.158 162.907 190.158L171.925 180.36H284.932C287.82 180.36 290.161 178.019 290.161 175.131V133.649C290.161 130.761 287.82 128.42 284.932 128.42Z" fill="#51C469"/>
<path d="M229.758 150.921C229.758 151.007 213.841 151.075 194.211 151.075C174.576 151.075 158.663 151.007 158.663 150.921C158.663 150.836 174.576 150.766 194.211 150.766C213.841 150.766 229.758 150.836 229.758 150.921Z" fill="#F5F5F5"/>
<path d="M229.758 144.548C229.758 144.633 213.841 144.702 194.211 144.702C174.576 144.702 158.663 144.633 158.663 144.548C158.663 144.463 174.576 144.394 194.211 144.394C213.841 144.394 229.758 144.463 229.758 144.548Z" fill="#F5F5F5"/>
<path d="M229.758 157.229C229.758 157.314 213.841 157.384 194.211 157.384C174.576 157.384 158.663 157.314 158.663 157.229C158.663 157.144 174.576 157.075 194.211 157.075C213.841 157.075 229.758 157.144 229.758 157.229Z" fill="#F5F5F5"/>
<path d="M205.231 163.76C205.231 163.846 194.805 163.915 181.948 163.915C169.086 163.915 158.663 163.846 158.663 163.76C158.663 163.675 169.086 163.606 181.948 163.606C194.805 163.606 205.231 163.675 205.231 163.76Z" fill="#F5F5F5"/>
<path d="M224.51 202.997H89.6835C87.6631 202.997 86.0248 204.635 86.0248 206.656V250.543C86.0248 252.564 87.6631 254.202 89.6835 254.202H187.605L196.519 263.887C196.519 263.887 197.454 258.444 198.242 254.202H224.51C226.53 254.202 228.169 252.564 228.169 250.543V206.656C228.169 204.635 226.53 202.997 224.51 202.997Z" fill="#282A30"/>
<path d="M219.218 225.631C219.218 225.716 203.302 225.785 183.673 225.785C164.037 225.785 148.124 225.716 148.124 225.631C148.124 225.545 164.037 225.476 183.673 225.476C203.302 225.476 219.218 225.545 219.218 225.631Z" fill="#F5F5F5"/>
<path d="M219.218 219.255C219.218 219.341 203.302 219.41 183.673 219.41C164.037 219.41 148.124 219.341 148.124 219.255C148.124 219.17 164.037 219.101 183.673 219.101C203.302 219.101 219.218 219.17 219.218 219.255Z" fill="#F5F5F5"/>
<path d="M219.218 231.935C219.218 232.02 203.302 232.09 183.673 232.09C164.037 232.09 148.124 232.02 148.124 231.935C148.124 231.85 164.037 231.78 183.673 231.78C203.302 231.78 219.218 231.85 219.218 231.935Z" fill="#F5F5F5"/>
<path d="M194.694 238.466C194.694 238.551 184.269 238.62 171.412 238.62C158.549 238.62 148.126 238.551 148.126 238.466C148.126 238.38 158.549 238.311 171.412 238.311C184.269 238.311 194.694 238.38 194.694 238.466Z" fill="#F5F5F5"/>
<path d="M251.315 110.824C251.395 109.734 250.423 108.23 249.522 107.366C248.62 106.502 248.062 105.33 248.532 103.587C248.895 102.24 249.748 102.341 250.086 101.549C250.336 100.963 250.23 100.295 250.283 99.6594C250.459 97.4783 252.859 95.7688 254.978 96.3139C255.575 94.2402 257.509 92.6202 259.655 92.3966C261.802 92.1729 264.028 93.3599 265.039 95.2664C266.264 94.6299 267.809 94.6518 269.015 95.3233C270.221 95.9948 271.053 97.295 271.158 98.6718C272.352 97.8093 274.185 98.1415 275.13 99.2715C276.075 100.402 276.133 102.132 275.416 103.419C274.698 104.706 273.306 105.543 271.851 105.767C270.394 105.99 268.889 105.646 267.57 104.989C266.252 104.332 265.104 103.375 264.059 102.336" fill="#11004D"/>
<path d="M286.693 153.913C286.693 167.762 275.196 178.989 261.014 178.989C246.832 178.989 235.335 167.762 235.335 153.913C235.335 140.063 246.832 128.836 261.014 128.836C275.196 128.836 286.693 140.063 286.693 153.913Z" fill="#F6F6F6"/>
<path d="M286.797 153.932L283.955 146.644L273.768 153.044L282.845 167.041C282.845 167.041 286.538 162.245 286.797 153.932Z" fill="#EB996E"/>
<path d="M258.674 138.155C262.335 138.161 265.356 135.317 265.536 131.694C265.687 128.676 265.813 125.769 265.813 125.769C265.813 125.769 271.416 125.364 271.934 119.885C272.451 114.407 272.521 101.738 272.521 101.738C266.34 98.4934 258.871 98.8178 253.002 102.586L252.469 102.929L251.821 131.278C251.78 135.059 254.859 138.149 258.674 138.155Z" fill="#FFBE9D"/>
<path d="M265.829 125.688C265.829 125.688 262.309 125.688 258.782 123.074C258.782 123.074 260.164 127.158 265.726 127.11L265.829 125.688Z" fill="#EB996E"/>
<path d="M252.335 110.973C252.341 110.53 251.998 110.147 251.552 110.126C250.518 110.078 248.819 110.452 248.606 113.276C248.3 117.31 252.24 116.379 252.256 116.263C252.268 116.174 252.315 112.542 252.335 110.973Z" fill="#FFBE9D"/>
<path d="M251.389 114.657C251.373 114.643 251.315 114.701 251.191 114.746C251.07 114.791 250.866 114.812 250.66 114.718C250.242 114.529 249.931 113.825 249.966 113.097C249.984 112.729 250.088 112.385 250.24 112.106C250.387 111.82 250.596 111.628 250.815 111.606C251.034 111.572 251.178 111.712 251.219 111.83C251.265 111.947 251.233 112.025 251.254 112.034C251.265 112.045 251.347 111.973 251.326 111.804C251.315 111.722 251.275 111.623 251.185 111.539C251.093 111.453 250.953 111.402 250.801 111.407C250.485 111.405 250.181 111.67 250.013 111.977C249.827 112.284 249.701 112.67 249.682 113.083C249.647 113.898 250.008 114.69 250.584 114.902C250.865 114.998 251.11 114.93 251.241 114.844C251.375 114.754 251.402 114.665 251.389 114.657Z" fill="#EB996E"/>
<path d="M273.301 103.471C273.301 103.471 269.976 105.08 265.65 102.921C262.811 101.504 259.502 100.812 258.772 101.382C258.043 101.953 257.889 104.878 255.076 105.733C255.076 105.733 255.27 111.313 253.045 111.114C250.82 110.915 252.21 102.271 252.21 102.271L257.654 99.6128L263.594 98.4905L269.192 99.2794L273.523 100.465L273.301 103.471Z" fill="#11004D"/>
<path d="M236.043 135.765C241.86 129.783 252.099 130.435 252.099 130.435L260.586 136.511L265.399 130.908C265.399 130.908 270.457 131.463 275.196 133.939L275.522 134.041L275.518 134.108C279.24 136.13 284.513 140.979 289.534 145.684L283.525 151.261L276.873 157.165C276.873 157.165 276.899 157.207 276.885 157.283C276.815 157.641 277.81 165.763 278.828 171.935C272.769 177.716 265.048 180.191 256.475 178.688C253.755 178.211 252.438 177.548 249.919 176.887C246.195 175.91 243.496 172.682 243.162 168.846C242.708 163.673 242.363 157.268 242.363 157.268" fill="#FFBA5F"/>
<path d="M270.721 131.954C270.742 131.948 270.871 132.288 271.087 132.909C271.305 133.53 271.601 134.434 271.95 135.556C272.651 137.8 273.543 140.926 274.387 144.413C275.228 147.903 275.861 151.091 276.262 153.407C276.462 154.566 276.612 155.505 276.701 156.157C276.792 156.807 276.832 157.169 276.812 157.173C276.79 157.176 276.71 156.821 276.583 156.176C276.446 155.482 276.265 154.561 276.047 153.447C275.591 151.144 274.927 147.969 274.087 144.485C273.244 141.004 272.388 137.876 271.741 135.619C271.427 134.528 271.168 133.626 270.972 132.945C270.791 132.313 270.701 131.961 270.721 131.954Z" fill="#11004D"/>
<path d="M276.187 153.339C276.133 153.273 278.671 151.116 281.855 148.523C285.039 145.928 287.664 143.879 287.717 143.946C287.771 144.011 285.234 146.168 282.05 148.762C278.867 151.356 276.241 153.405 276.187 153.339Z" fill="#11004D"/>
<g opacity="0.199997">
<g opacity="0.199997">
<path opacity="0.199997" d="M243.724 143.979L238.518 161.107L240.454 162.115L242.365 157.271C242.365 157.271 244.328 147.095 243.724 143.979Z" fill="#11004D"/>
</g>
</g>
<g opacity="0.199997">
<g opacity="0.199997">
<path opacity="0.199997" d="M270.16 131.962C272.966 133.442 265.932 137.002 262.756 136.906L265.062 130.819C265.062 130.819 269.218 131.466 270.16 131.962Z" fill="#11004D"/>
</g>
</g>
<path d="M251.263 130.82V126.284C251.263 126.284 260.122 128.564 260.444 133.865C260.444 133.865 261.57 128.005 266.134 127.725L266.779 135.966L261.467 140.587H256.084L251.82 136.909L251.263 131.186" fill="#FFBA5F"/>
<path d="M262.438 159.288C262.417 159.287 262.413 158.94 262.423 158.313C262.436 157.686 262.448 156.779 262.451 155.659C262.458 153.419 262.388 150.325 262.107 146.92C261.823 143.515 261.381 140.451 261.003 138.243C260.815 137.18 260.658 136.3 260.539 135.63C260.425 135.014 260.372 134.67 260.393 134.666C260.414 134.661 260.506 134.996 260.656 135.605C260.809 136.214 261.003 137.102 261.218 138.204C261.652 140.406 262.129 143.477 262.415 146.894C262.697 150.311 262.732 153.418 262.669 155.663C262.638 156.785 262.593 157.693 262.543 158.318C262.496 158.944 262.46 159.29 262.438 159.288Z" fill="#11004D"/>
<path d="M260.035 132.34C260.031 132.366 259.834 132.263 259.509 132.389C259.171 132.498 258.868 132.919 258.62 133.521C258.076 134.7 257.403 136.399 256.935 138.422L256.888 138.624L256.709 138.517C256.18 138.197 255.637 137.851 255.091 137.48C254.032 136.76 253.064 136.025 252.218 135.298C251.793 134.932 251.442 134.488 251.24 134.017C251.042 133.546 250.964 133.074 250.942 132.65C250.907 131.796 251.047 131.123 251.138 130.666C251.238 130.207 251.313 129.96 251.333 129.964C251.355 129.968 251.319 130.225 251.257 130.686C251.202 131.146 251.099 131.818 251.16 132.635C251.195 133.042 251.281 133.483 251.474 133.913C251.671 134.342 251.99 134.735 252.407 135.084C253.244 135.784 254.216 136.512 255.264 137.225C255.805 137.592 256.343 137.937 256.866 138.258L256.641 138.352C257.13 136.306 257.847 134.601 258.443 133.435C258.59 133.145 258.733 132.876 258.91 132.672C259.083 132.466 259.294 132.34 259.475 132.289C259.851 132.184 260.049 132.335 260.035 132.34Z" fill="#11004D"/>
<path d="M266.136 127.725C266.157 127.725 266.184 127.977 266.219 128.433C266.257 128.954 266.304 129.599 266.361 130.364C266.427 131.177 266.525 132.143 266.692 133.207C266.757 133.732 266.941 134.303 266.798 134.948C266.615 135.582 266.138 136.055 265.633 136.437C264.923 136.964 264.182 137.359 263.684 137.917L263.448 138.182L263.425 137.829C263.302 135.955 262.676 134.414 262.116 133.411C261.553 132.401 261.088 131.881 261.125 131.852C261.137 131.841 261.264 131.961 261.475 132.202C261.684 132.445 261.97 132.816 262.278 133.318C262.893 134.311 263.575 135.879 263.721 137.809L263.462 137.72C264.003 137.105 264.77 136.697 265.447 136.19C265.929 135.831 266.355 135.385 266.505 134.873C266.632 134.353 266.475 133.787 266.41 133.249C266.258 132.173 266.181 131.197 266.143 130.378C266.104 129.559 266.097 128.895 266.099 128.438C266.101 127.98 266.115 127.726 266.136 127.725Z" fill="#11004D"/>
<path d="M294.649 128.862C294.289 129.286 281.247 146.725 281.247 146.725L283.083 147.765L296.466 130.548L294.649 128.862Z" fill="#11004D"/>
<path d="M242.258 142.651C242.258 142.651 255.977 162.4 256.804 162.788C258.433 163.552 277.202 147.332 278.993 145.78C279.239 145.451 279.748 144.755 280.748 143.372C280.748 143.372 282.229 136.595 283.809 137.116C285.389 137.636 282.943 140.56 283.972 143.134C285.001 145.709 289.715 139.568 289.903 139.017L291.119 137.428C291.119 137.428 292.394 141.042 292.308 142.551C292.031 147.386 287.457 153.136 287.457 153.136C287.457 153.136 266.915 178.582 252.845 179.371C248.792 179.599 241.59 168.1 236.775 159.477C233.868 154.27 235.319 147.71 240.138 144.196L242.258 142.651Z" fill="#FFBE9D"/>
<path d="M289.998 143.41C289.952 143.382 290.392 142.605 290.877 141.621C291.365 140.637 291.716 139.817 291.766 139.836C291.812 139.852 291.536 140.71 291.043 141.703C290.553 142.697 290.039 143.436 289.998 143.41Z" fill="#EB996E"/>
<path d="M239.935 133.013C239.935 133.013 225.209 138.248 236.158 163.012L253.157 152.752L250.739 146.961L239.935 133.013Z" fill="#FFBA5F"/>
<path d="M238.805 133.442C238.805 133.442 239.448 133.336 240.578 133.591C241.136 133.735 241.807 133.981 242.509 134.406C243.214 134.828 243.945 135.421 244.655 136.167C246.084 137.656 247.418 139.735 248.655 142.143C249.901 144.551 251.063 147.293 252.256 150.175C252.612 151.038 252.964 151.888 253.298 152.694L253.351 152.821L253.229 152.888C248.311 155.569 244.028 158.08 241.001 159.959C239.486 160.896 238.28 161.667 237.452 162.203C237.056 162.458 236.74 162.66 236.498 162.816C236.279 162.953 236.162 163.021 236.156 163.013C236.15 163.005 236.257 162.921 236.466 162.768C236.675 162.616 236.983 162.39 237.39 162.111C238.2 161.545 239.39 160.747 240.892 159.785C243.893 157.857 248.163 155.311 253.082 152.618L253.014 152.812C252.68 152.006 252.328 151.156 251.97 150.293C250.779 147.412 249.627 144.674 248.402 142.273C247.185 139.871 245.883 137.801 244.496 136.317C243.807 135.574 243.099 134.98 242.419 134.554C241.739 134.123 241.091 133.866 240.548 133.707C239.448 133.421 238.802 133.485 238.805 133.442Z" fill="#11004D"/>
<path opacity="0.2" d="M270.485 96.724C270.496 96.7222 270.521 96.81 270.558 96.9826C270.585 97.1552 270.622 97.4156 270.601 97.7508C270.568 98.4092 270.329 99.4294 269.478 100.319C268.655 101.211 267.091 101.774 265.514 101.32C264.742 101.094 263.963 100.625 263.485 99.8488C263.254 99.465 263.114 98.9875 263.181 98.5094C263.246 98.0414 263.482 97.5669 263.91 97.2857C264.338 96.9956 264.9 97.0039 265.333 97.1938C265.774 97.3806 266.137 97.7389 266.307 98.1725C266.654 99.0427 266.398 99.9841 265.918 100.638C264.896 101.99 263.05 102.099 262.028 101.483C261.488 101.235 261.012 101.001 260.563 100.921C260.116 100.829 259.72 100.908 259.429 101.041C258.848 101.32 258.612 101.63 258.585 101.596C258.578 101.589 258.637 101.519 258.759 101.392C258.819 101.328 258.894 101.248 259.001 101.174C259.104 101.094 259.223 101.002 259.378 100.931C259.676 100.774 260.109 100.669 260.592 100.751C261.076 100.821 261.577 101.052 262.115 101.283C262.386 101.393 262.668 101.511 262.971 101.566C263.267 101.617 263.6 101.611 263.926 101.548C264.58 101.431 265.25 101.073 265.688 100.469C266.118 99.8797 266.33 99.0213 266.027 98.2888C265.762 97.5728 264.765 97.0882 264.079 97.5437C263.744 97.7614 263.54 98.1547 263.486 98.5504C263.429 98.949 263.542 99.3511 263.746 99.694C264.163 100.383 264.88 100.832 265.594 101.047C267.06 101.484 268.531 100.985 269.323 100.166C270.146 99.3452 270.414 98.3771 270.481 97.7413C270.551 97.0911 270.451 96.7281 270.485 96.724Z" fill="white"/>
<path d="M271.462 98.7241C271.49 98.7099 271.708 99.1037 271.747 99.8138C271.792 100.509 271.59 101.543 270.867 102.382C270.14 103.216 269.144 103.561 268.45 103.617C267.742 103.679 267.321 103.518 267.331 103.489C267.338 103.436 267.762 103.514 268.42 103.4C269.07 103.295 269.97 102.939 270.634 102.179C271.292 101.415 271.516 100.473 271.528 99.8156C271.548 99.1476 271.41 98.7389 271.462 98.7241Z" fill="#11004D"/>
<path d="M251.4 148.357C251.438 148.434 247.527 150.445 242.665 152.849C237.802 155.253 233.83 157.14 233.792 157.064C233.755 156.987 237.665 154.976 242.528 152.572C247.39 150.168 251.363 148.28 251.4 148.357Z" fill="#E0E0E0"/>
<path d="M247.835 141.625C247.876 141.7 244.394 143.647 240.06 145.973C235.724 148.3 232.178 150.126 232.137 150.05C232.097 149.975 235.578 148.028 239.914 145.701C244.248 143.375 247.795 141.55 247.835 141.625Z" fill="#E0E0E0"/>
<path d="M244.394 136.189C244.414 136.227 243.743 136.612 242.651 137.219C241.486 137.87 240.017 138.689 238.394 139.595C236.777 140.517 235.317 141.349 234.157 142.011C233.073 142.631 232.397 143.006 232.374 142.968C232.352 142.933 232.987 142.492 234.044 141.824C235.1 141.155 236.58 140.264 238.242 139.326C239.903 138.389 241.432 137.584 242.55 137.026C243.668 136.468 244.375 136.152 244.394 136.189Z" fill="#E0E0E0"/>
<path d="M257.42 134.9C257.411 134.936 256.955 134.876 256.274 134.592C255.593 134.314 254.711 133.778 253.875 133.03C253.039 132.283 252.391 131.505 251.941 130.935C251.493 130.363 251.239 129.99 251.271 129.964C251.305 129.936 251.618 130.26 252.107 130.794C252.598 131.326 253.264 132.07 254.081 132.799C254.896 133.529 255.727 134.073 256.366 134.394C257.003 134.72 257.433 134.853 257.42 134.9Z" fill="#E0E0E0"/>
<path d="M266.072 131.686C266.147 131.707 265.788 132.673 264.84 133.463C263.899 134.263 262.886 134.453 262.878 134.374C262.847 134.286 263.761 133.979 264.64 133.227C265.531 132.488 265.989 131.641 266.072 131.686Z" fill="#E0E0E0"/>
<path d="M281.498 140.614C281.499 140.625 281.385 140.646 281.167 140.676C280.916 140.707 280.599 140.746 280.213 140.794C279.384 140.886 278.181 141.001 276.693 141.117C273.718 141.354 269.601 141.587 265.051 141.752C260.5 141.911 256.376 141.973 253.392 141.948C251.9 141.939 250.692 141.909 249.859 141.877C249.47 141.857 249.153 141.841 248.899 141.828C248.679 141.813 248.564 141.801 248.564 141.79C248.565 141.779 248.681 141.771 248.9 141.766C249.154 141.763 249.472 141.76 249.86 141.757C250.738 141.75 251.933 141.741 253.392 141.73C256.374 141.699 260.492 141.603 265.04 141.443C269.587 141.278 273.702 141.08 276.679 140.899C278.134 140.806 279.328 140.73 280.202 140.674C280.591 140.65 280.908 140.63 281.162 140.614C281.381 140.604 281.497 140.604 281.498 140.614Z" fill="#E0E0E0"/>
<path d="M276.813 147.648C276.816 147.669 276.468 147.722 275.838 147.801C275.209 147.88 274.296 147.978 273.166 148.079C270.906 148.288 267.779 148.503 264.319 148.644C260.859 148.782 257.723 148.82 255.454 148.795C254.32 148.785 253.401 148.76 252.768 148.733C252.134 148.705 251.784 148.68 251.784 148.658C251.784 148.637 252.135 148.622 252.77 148.613C253.456 148.603 254.361 148.591 255.453 148.577C257.72 148.546 260.85 148.473 264.306 148.335C267.762 148.195 270.888 148.014 273.149 147.862C274.239 147.788 275.143 147.728 275.828 147.681C276.46 147.639 276.811 147.626 276.813 147.648Z" fill="#E0E0E0"/>
<path d="M266.18 156.325C266.183 156.366 265.433 156.477 264.214 156.602C262.995 156.728 261.306 156.863 259.439 156.956C257.57 157.048 255.877 157.082 254.651 157.078C253.426 157.075 252.668 157.039 252.668 156.997C252.668 156.954 253.425 156.911 254.648 156.859C255.959 156.801 257.604 156.728 259.424 156.647C261.242 156.547 262.886 156.456 264.196 156.384C265.418 156.315 266.176 156.281 266.18 156.325Z" fill="#E0E0E0"/>
<path d="M252.588 135.736C252.586 135.824 250.766 135.844 248.527 135.937C246.287 136.028 244.472 136.158 244.463 136.07C244.453 135.988 246.262 135.72 248.514 135.629C250.766 135.535 252.591 135.654 252.588 135.736Z" fill="#E0E0E0"/>
<path d="M277.612 135.415C277.612 135.5 275.252 135.56 272.341 135.55C269.429 135.538 267.071 135.461 267.071 135.375C267.071 135.29 269.431 135.23 272.342 135.241C275.253 135.252 277.612 135.329 277.612 135.415Z" fill="#E0E0E0"/>
<path d="M278.522 171.509C278.532 171.528 278.338 171.637 277.982 171.819C277.626 172.003 277.1 172.245 276.438 172.522C275.119 173.077 273.244 173.732 271.11 174.226C268.976 174.715 267.003 174.947 265.573 175.026C264.858 175.067 264.278 175.08 263.878 175.069C263.478 175.062 263.257 175.048 263.257 175.027C263.256 174.978 264.139 174.944 265.557 174.809C266.974 174.674 268.925 174.41 271.041 173.925C273.156 173.435 275.025 172.818 276.359 172.318C277.692 171.819 278.501 171.464 278.522 171.509Z" fill="#E0E0E0"/>
<path d="M92.6075 227.748C92.6075 241.276 104.105 252.243 118.286 252.243C132.468 252.243 143.965 241.276 143.965 227.748C143.965 214.218 132.468 203.251 118.286 203.251C104.105 203.251 92.6075 214.218 92.6075 227.748Z" fill="#F6F6F6"/>
<path d="M113.054 168.687C108.98 168.898 107.381 173.146 106.894 174.094C106.407 175.041 106.331 176.139 106.241 177.201C106.152 178.264 106.026 179.366 105.459 180.269C104.563 181.7 102.679 182.44 102.166 184.048C101.585 185.868 103.075 187.814 102.678 189.682C102.465 190.685 101.733 191.51 101.474 192.501C101.204 193.537 101.486 194.657 102.024 195.581C103.362 197.879 106.136 199.034 108.793 199.128C111.45 199.223 114.05 198.429 116.59 197.641" fill="#11004D"/>
<path d="M130.981 173.963C130.582 174.825 130.959 175.872 131.584 176.588C132.209 177.302 133.049 177.788 133.789 178.384C134.529 178.98 135.209 179.766 135.295 180.712C135.373 181.581 134.937 182.442 135.056 183.307C135.36 185.528 138.901 186.194 139.09 188.428C139.215 189.915 137.689 191.281 138.112 192.711C138.274 193.26 138.699 193.685 138.994 194.175C139.998 195.844 139.317 198.146 137.861 199.439C136.405 200.734 134.38 201.189 132.435 201.277C130.798 201.351 128.939 201.083 127.976 199.758C127.094 198.546 127.275 196.893 127.451 195.405C128.274 188.454 128.134 181.429 127.993 174.431" fill="#11004D"/>
<path d="M114.126 206.132C114.157 202.479 114.123 198.634 114.123 198.634C114.123 198.634 109.428 197.799 108.524 191.65C107.662 185.785 109.124 173.172 109.124 173.172C115.927 170.489 123.586 171.527 128.351 177.002L127.61 206.658C127.524 210.101 124.496 212.769 120.81 212.649C117.087 212.527 114.097 209.611 114.126 206.132Z" fill="#FFBE9D"/>
<path d="M114.121 198.638C114.121 198.638 118.247 198.952 122.366 196.541C122.366 196.541 120.324 200.734 114.187 200.088L114.121 198.638Z" fill="#EB996E"/>
<path d="M125.686 172.625C123.44 175.828 117.494 179.121 113.236 179.886C113.733 179.231 116.349 177.619 116.846 176.964C114.915 178.406 112.154 180.333 109.593 180.464C109.29 180.479 108.962 180.479 108.713 180.327C108.373 180.12 108.304 179.718 108.265 179.362C108.1 177.862 108.204 175.289 108.443 173.8C108.681 172.311 109.366 170.83 110.658 169.832C112.298 168.564 114.646 168.252 116.858 168.198C118.714 168.154 120.626 168.264 122.322 168.933C124.017 169.602 125.468 170.926 125.716 172.517" fill="#11004D"/>
<path d="M132.125 186.973C132.434 185.384 132.681 183.877 132.738 182.87C132.919 179.703 132.005 168.012 121.083 168.953L120.643 172.279C120.643 172.279 118.955 183.664 126.02 183.748C126.02 183.748 126.41 187.14 129.609 190.44C129.609 190.44 131.461 190.384 132.125 186.973Z" fill="#11004D"/>
<path d="M126.019 183.747C126.677 183.627 127.37 183.654 127.994 183.896C128.616 184.139 129.161 184.611 129.424 185.225C129.688 185.841 129.653 186.56 129.418 187.187C129.184 187.815 128.764 188.36 128.281 188.825C127.934 189.159 127.541 189.463 127.081 189.603C126.62 189.741 126.08 189.689 125.716 189.374" fill="#FFBE9D"/>
<path d="M126.335 187.732C126.26 187.756 126.541 188.156 127.143 188.001C127.432 187.928 127.718 187.677 127.892 187.362C128.067 187.041 128.183 186.69 128.231 186.277C128.277 185.867 128.189 185.431 127.967 185.118C127.755 184.8 127.406 184.608 127.111 184.599C126.493 184.578 126.297 185.003 126.367 185.016C126.416 185.067 126.658 184.85 127.061 184.952C127.448 185.026 127.821 185.564 127.731 186.227C127.649 186.901 127.382 187.517 127.021 187.667C126.645 187.853 126.377 187.678 126.335 187.732Z" fill="#EB996E"/>
<path d="M127.209 171.42C128.045 171.897 129.069 172.031 129.999 171.786C130.929 171.542 131.756 170.921 132.249 170.095C132.567 169.562 132.75 168.915 132.594 168.314C132.38 167.492 131.581 166.938 130.759 166.724C129.568 166.414 128.217 166.711 127.316 167.55C126.415 168.391 126.027 169.765 126.427 170.93C126.826 172.095 128.029 172.955 129.26 172.885" fill="#11004D"/>
<path d="M128.207 189.13C127.6 189.569 126.984 190.014 126.509 190.594C126.034 191.174 125.708 191.913 125.777 192.66C125.815 193.077 125.975 193.49 125.914 193.905C125.831 194.475 125.363 194.898 125.054 195.385C124.255 196.644 124.598 198.411 125.608 199.507C126.619 200.604 128.154 201.099 129.644 201.147C130.508 201.176 131.416 201.054 132.124 200.558C133.145 199.844 133.539 198.504 133.565 197.257" fill="#11004D"/>
<path opacity="0.4" d="M128.948 173.875C128.981 173.894 128.764 174.34 128.305 174.995C127.848 175.649 127.129 176.498 126.201 177.297C125.273 178.093 124.325 178.677 123.609 179.03C122.893 179.386 122.42 179.533 122.406 179.498C122.361 179.409 124.184 178.638 126 177.062C127.831 175.504 128.867 173.817 128.948 173.875Z" fill="white"/>
<path opacity="0.4" d="M130.081 173.815C130.115 173.818 130.094 174.399 129.88 175.311C129.67 176.223 129.23 177.456 128.493 178.687C127.751 179.915 126.867 180.881 126.161 181.494C125.454 182.109 124.952 182.401 124.932 182.373C124.859 182.296 126.787 180.956 128.228 178.527C129.699 176.118 129.98 173.786 130.081 173.815Z" fill="white"/>
<path d="M106.369 178.755C106.46 178.749 106.578 179.777 106.932 180.99C107.279 182.206 107.727 183.138 107.647 183.18C107.58 183.222 106.993 182.33 106.635 181.076C106.27 179.823 106.29 178.756 106.369 178.755Z" fill="#11004D"/>
<path opacity="0.4" d="M132.53 199.744C132.546 199.706 132.805 200.021 133.433 200.034C133.737 200.037 134.121 199.949 134.478 199.705C134.834 199.464 135.125 199.033 135.27 198.506C135.413 197.976 135.416 197.358 135.281 196.718C135.153 196.074 134.903 195.408 134.683 194.683C134.469 193.96 134.282 193.146 134.42 192.292C134.556 191.423 135.12 190.717 135.394 189.937C135.674 189.158 135.561 188.295 135.219 187.597C134.868 186.889 134.277 186.375 133.593 186.111C133.253 185.965 132.901 185.843 132.575 185.666C132.25 185.491 131.948 185.248 131.763 184.938C131.383 184.312 131.398 183.634 131.396 183.072C131.407 182.497 131.438 181.994 131.335 181.563C131.243 181.133 131.082 180.78 130.89 180.541C130.491 180.053 130.07 180.088 130.09 180.047C130.089 180.042 130.181 180.028 130.349 180.067C130.515 180.103 130.76 180.217 130.982 180.464C131.203 180.709 131.39 181.076 131.504 181.524C131.628 181.976 131.611 182.513 131.614 183.072C131.626 183.628 131.639 184.271 131.979 184.8C132.311 185.345 133.002 185.57 133.703 185.849C134.427 186.115 135.112 186.694 135.49 187.461C135.868 188.221 135.997 189.171 135.686 190.039C135.377 190.89 134.836 191.568 134.718 192.343C134.587 193.116 134.753 193.893 134.956 194.602C135.164 195.316 135.41 195.997 135.532 196.669C135.662 197.339 135.648 198 135.48 198.566C135.31 199.132 134.979 199.595 134.574 199.848C134.173 200.102 133.756 200.176 133.429 200.154C133.098 200.135 132.858 200.017 132.718 199.922C132.577 199.824 132.53 199.744 132.53 199.744Z" fill="white"/>
<path opacity="0.4" d="M128.249 199.325C128.276 199.308 128.327 199.515 128.614 199.646C128.873 199.772 129.45 199.78 129.765 199.335C130.086 198.886 130.036 198.131 129.669 197.478C129.331 196.807 128.659 196.151 128.487 195.171C128.397 194.698 128.51 194.159 128.817 193.803C129.107 193.445 129.448 193.207 129.67 192.913C130.118 192.322 130.156 191.582 130.084 191.02C130.007 190.444 129.843 189.989 129.744 189.674C129.64 189.358 129.586 189.18 129.607 189.173C129.626 189.164 129.717 189.326 129.855 189.63C129.99 189.935 130.19 190.384 130.3 190.987C130.401 191.577 130.401 192.385 129.898 193.085C129.645 193.426 129.3 193.676 129.055 193.99C128.803 194.295 128.719 194.702 128.792 195.121C128.932 195.974 129.562 196.621 129.922 197.347C130.306 198.061 130.357 198.932 129.942 199.463C129.742 199.736 129.437 199.849 129.189 199.875C128.935 199.9 128.714 199.846 128.559 199.754C128.241 199.56 128.238 199.316 128.249 199.325Z" fill="white"/>
<path opacity="0.4" d="M104.997 197.778C104.981 197.79 104.806 197.623 104.514 197.296C104.23 196.964 103.798 196.478 103.479 195.736C103.321 195.366 103.218 194.923 103.23 194.441C103.241 193.965 103.382 193.429 103.753 193.005C104.12 192.578 104.654 192.357 104.975 191.958C105.307 191.563 105.35 190.983 105.22 190.432C105.093 189.87 104.834 189.367 104.57 188.865C104.314 188.361 104.08 187.848 103.993 187.308C103.898 186.772 104.017 186.21 104.298 185.811C104.573 185.406 104.915 185.13 105.202 184.869C105.801 184.376 106.14 183.84 106.215 183.423C106.298 183.006 106.155 182.778 106.19 182.769C106.197 182.766 106.236 182.815 106.28 182.926C106.323 183.035 106.362 183.215 106.334 183.442C106.294 183.9 105.943 184.507 105.351 185.029C105.071 185.3 104.748 185.583 104.514 185.95C104.274 186.312 104.185 186.779 104.274 187.261C104.358 187.746 104.583 188.233 104.839 188.726C105.1 189.215 105.385 189.758 105.522 190.364C105.665 190.958 105.623 191.664 105.21 192.149C104.807 192.624 104.277 192.828 103.966 193.193C103.645 193.549 103.506 194.017 103.486 194.452C103.464 194.89 103.546 195.303 103.682 195.656C103.957 196.367 104.354 196.869 104.607 197.22C104.869 197.568 105.014 197.764 104.997 197.778Z" fill="white"/>
<path d="M129.734 172.201C129.651 172.244 129.238 171.335 128.288 170.63C127.351 169.908 126.364 169.758 126.383 169.666C126.37 169.587 127.457 169.605 128.474 170.384C129.5 171.151 129.814 172.191 129.734 172.201Z" fill="#E8505B"/>
<path d="M130.591 166.517C130.622 166.497 130.821 166.729 130.982 167.19C131.142 167.643 131.235 168.343 131.034 169.072C130.832 169.801 130.394 170.354 130.022 170.66C129.649 170.973 129.359 171.07 129.343 171.038C129.318 170.997 129.56 170.834 129.872 170.502C130.184 170.174 130.553 169.651 130.736 168.99C130.918 168.329 130.87 167.69 130.771 167.249C130.674 166.803 130.549 166.54 130.591 166.517Z" fill="#11004D"/>
<g opacity="0.300003">
<g opacity="0.300003">
<path opacity="0.300003" d="M100.47 239.488C100.47 239.488 115.208 253.483 123.968 250.949C132.729 248.415 135.322 241.843 135.322 241.843L135.534 239.488L134.656 238.914L100.928 236.183L100.47 239.488Z" fill="#11004D"/>
</g>
</g>
<path d="M91.7491 226.382L94.5917 219.094L104.778 225.494L95.7015 239.492C95.7015 239.492 92.009 234.695 91.7491 226.382Z" fill="#EB996E"/>
<path d="M103.244 206.243C107.983 203.767 114.122 203.054 114.122 203.054C115.903 206.621 121.518 207.073 124.917 204.639L127.784 202.701C127.784 202.701 128.229 202.684 128.985 202.75C135.691 203.343 141.18 208.352 142.547 214.943C143.044 217.343 143.411 220.096 143.264 222.65C142.891 229.13 136.18 229.716 136.18 229.716C136.18 229.716 135.834 236.121 135.381 241.295V241.295C135.044 245.16 133.039 248.049 129.512 249.666C126.887 250.87 125.439 251.427 122.03 251.973C113.436 253.347 105.18 250.084 99.7364 244.254C100.755 238.081 101.727 230.089 101.658 229.732C101.643 229.657 101.67 229.613 101.67 229.613L95.0177 223.709L91.248 220.543C91.248 220.543 99.5211 208.265 103.244 206.243Z" fill="#FF6D6E"/>
<path d="M111.487 210.242C111.463 210.303 110.92 209.786 109.843 209.786C109.322 209.788 108.677 209.939 108.147 210.375C107.883 210.587 107.659 210.887 107.392 211.186C107.132 211.478 106.794 211.812 106.316 211.9C105.837 211.99 105.394 211.779 105.062 211.564C104.721 211.346 104.429 211.107 104.129 210.935C103.542 210.575 102.875 210.609 102.389 210.783C101.893 210.956 101.564 211.254 101.377 211.48C101.191 211.712 101.123 211.868 101.097 211.858C101.083 211.853 101.113 211.678 101.28 211.41C101.448 211.146 101.778 210.797 102.311 210.578C102.826 210.36 103.593 210.293 104.269 210.687C104.6 210.868 104.9 211.108 105.223 211.308C105.543 211.51 105.901 211.665 106.261 211.596C106.62 211.534 106.912 211.267 107.167 210.983C107.427 210.7 107.664 210.39 107.969 210.153C108.576 209.677 109.287 209.542 109.847 209.568C110.414 209.594 110.852 209.768 111.117 209.931C111.385 210.096 111.498 210.23 111.487 210.242Z" fill="#FAFAFA"/>
<path d="M118.247 219.091C118.203 219.14 117.855 218.478 116.834 218.134C116.34 217.969 115.68 217.907 115.039 218.15C114.721 218.267 114.412 218.48 114.064 218.678C113.724 218.872 113.297 219.079 112.816 219.01C112.333 218.942 111.982 218.601 111.736 218.292C111.482 217.976 111.282 217.656 111.052 217.396C110.611 216.869 109.968 216.687 109.452 216.697C108.927 216.703 108.52 216.879 108.271 217.035C108.02 217.194 107.905 217.321 107.885 217.302C107.873 217.294 107.957 217.137 108.201 216.936C108.444 216.741 108.869 216.515 109.443 216.478C110.002 216.436 110.75 216.617 111.264 217.206C111.52 217.484 111.728 217.807 111.97 218.1C112.208 218.393 112.498 218.656 112.861 218.705C113.222 218.76 113.584 218.601 113.916 218.413C114.252 218.228 114.576 218.01 114.942 217.883C115.668 217.625 116.385 217.725 116.907 217.929C117.437 218.135 117.795 218.439 117.995 218.678C118.196 218.92 118.26 219.083 118.247 219.091Z" fill="#FAFAFA"/>
<path d="M133.256 206.122C133.244 206.187 132.605 205.797 131.552 206.026C131.044 206.137 130.445 206.422 130.019 206.96C129.806 207.223 129.65 207.564 129.454 207.913C129.261 208.254 129.002 208.651 128.553 208.838C128.103 209.027 127.626 208.915 127.257 208.776C126.877 208.635 126.54 208.462 126.211 208.358C125.561 208.13 124.916 208.305 124.478 208.578C124.03 208.853 123.772 209.212 123.637 209.473C123.504 209.739 123.47 209.907 123.443 209.901C123.429 209.9 123.42 209.722 123.527 209.425C123.636 209.132 123.885 208.72 124.359 208.394C124.815 208.072 125.552 207.843 126.295 208.086C126.657 208.193 127.001 208.363 127.36 208.491C127.714 208.62 128.098 208.697 128.434 208.553C128.772 208.415 129.002 208.092 129.191 207.762C129.384 207.43 129.55 207.077 129.799 206.78C130.291 206.187 130.957 205.905 131.51 205.812C132.07 205.717 132.535 205.794 132.829 205.897C133.125 206.001 133.264 206.109 133.256 206.122Z" fill="#FAFAFA"/>
<path d="M126.331 215.859C126.288 215.9 126.034 215.385 125.266 215.096C124.894 214.957 124.394 214.889 123.901 215.054C123.657 215.131 123.414 215.283 123.137 215.426C122.867 215.565 122.524 215.715 122.141 215.643C121.758 215.571 121.492 215.286 121.313 215.037C121.126 214.783 120.985 214.529 120.819 214.323C120.506 213.908 120.028 213.747 119.635 213.733C118.814 213.708 118.434 214.174 118.407 214.12C118.394 214.11 118.461 213.988 118.656 213.837C118.849 213.691 119.188 213.525 119.637 213.514C120.073 213.497 120.656 213.664 121.04 214.143C121.23 214.368 121.38 214.624 121.555 214.857C121.728 215.088 121.935 215.292 122.2 215.339C122.746 215.435 123.246 214.945 123.815 214.782C124.395 214.608 124.95 214.714 125.349 214.894C126.172 215.273 126.362 215.866 126.331 215.859Z" fill="#FAFAFA"/>
<path d="M111.052 224.056C111.009 224.096 110.756 223.583 109.987 223.292C109.616 223.154 109.115 223.085 108.622 223.25C108.379 223.328 108.135 223.48 107.859 223.623C107.589 223.761 107.245 223.912 106.863 223.839C106.479 223.768 106.213 223.483 106.034 223.234C105.848 222.979 105.706 222.725 105.54 222.52C105.228 222.105 104.75 221.944 104.356 221.929C103.535 221.904 103.155 222.37 103.128 222.317C103.115 222.307 103.182 222.186 103.377 222.034C103.57 221.887 103.909 221.722 104.358 221.711C104.795 221.694 105.377 221.861 105.761 222.339C105.951 222.565 106.102 222.821 106.277 223.053C106.449 223.285 106.657 223.488 106.921 223.536C107.467 223.632 107.968 223.141 108.537 222.979C109.116 222.805 109.671 222.91 110.069 223.09C110.894 223.47 111.084 224.063 111.052 224.056Z" fill="#FAFAFA"/>
<path d="M125.332 224.239C125.304 224.292 124.899 223.887 124.078 223.861C123.68 223.85 123.186 223.948 122.773 224.263C122.567 224.416 122.386 224.639 122.17 224.863C121.96 225.081 121.684 225.335 121.298 225.39C120.912 225.446 120.569 225.263 120.318 225.085C120.06 224.904 119.843 224.71 119.621 224.569C119.19 224.277 118.686 224.28 118.309 224.394C117.523 224.636 117.315 225.199 117.272 225.158C117.257 225.152 117.281 225.016 117.416 224.809C117.552 224.608 117.818 224.343 118.24 224.186C118.647 224.029 119.252 223.999 119.771 224.327C120.023 224.478 120.248 224.672 120.489 224.835C120.728 224.999 120.99 225.124 121.255 225.084C121.803 224.997 122.118 224.372 122.604 224.034C123.096 223.682 123.655 223.602 124.09 223.643C124.993 223.736 125.364 224.235 125.332 224.239Z" fill="#FAFAFA"/>
<path d="M120.618 230.757C120.59 230.809 120.184 230.405 119.363 230.379C118.966 230.367 118.471 230.465 118.058 230.78C117.853 230.933 117.672 231.156 117.456 231.381C117.245 231.599 116.969 231.853 116.583 231.907C116.198 231.964 115.854 231.78 115.604 231.603C115.345 231.422 115.129 231.228 114.906 231.087C114.476 230.795 113.971 230.798 113.594 230.911C112.809 231.154 112.6 231.717 112.557 231.675C112.542 231.67 112.566 231.534 112.701 231.327C112.837 231.126 113.104 230.86 113.525 230.704C113.932 230.547 114.538 230.516 115.056 230.845C115.308 230.996 115.534 231.19 115.775 231.353C116.013 231.517 116.275 231.642 116.541 231.602C117.088 231.515 117.403 230.889 117.889 230.551C118.381 230.2 118.94 230.12 119.376 230.161C120.278 230.254 120.649 230.753 120.618 230.757Z" fill="#FAFAFA"/>
<path d="M110.654 246.927C110.611 246.968 110.35 246.457 109.578 246.179C109.204 246.045 108.703 245.984 108.213 246.155C107.97 246.237 107.729 246.393 107.454 246.539C107.186 246.681 106.845 246.837 106.462 246.769C106.077 246.703 105.807 246.422 105.624 246.176C105.434 245.924 105.289 245.673 105.121 245.469C104.802 245.059 104.322 244.904 103.929 244.895C103.107 244.882 102.734 245.353 102.706 245.3C102.693 245.29 102.758 245.168 102.951 245.014C103.142 244.864 103.478 244.694 103.927 244.677C104.363 244.654 104.948 244.812 105.339 245.285C105.532 245.508 105.686 245.762 105.864 245.992C106.041 246.222 106.251 246.421 106.516 246.466C107.063 246.553 107.556 246.056 108.123 245.885C108.7 245.703 109.257 245.801 109.658 245.975C110.487 246.343 110.685 246.933 110.654 246.927Z" fill="#FAFAFA"/>
<path d="M122.31 250.365C122.281 250.417 121.881 250.007 121.061 249.97C120.664 249.953 120.167 250.044 119.75 250.353C119.543 250.503 119.358 250.723 119.139 250.945C118.926 251.16 118.646 251.41 118.26 251.46C117.873 251.51 117.532 251.322 117.284 251.142C117.028 250.957 116.815 250.76 116.594 250.616C116.167 250.319 115.663 250.314 115.285 250.422C114.496 250.654 114.28 251.214 114.237 251.172C114.222 251.166 114.248 251.03 114.386 250.826C114.524 250.626 114.795 250.364 115.218 250.214C115.628 250.062 116.233 250.04 116.748 250.376C116.998 250.531 117.22 250.728 117.459 250.895C117.695 251.061 117.955 251.19 118.222 251.153C118.77 251.074 119.094 250.453 119.584 250.122C120.081 249.777 120.642 249.705 121.076 249.752C121.977 249.857 122.342 250.361 122.31 250.365Z" fill="#FAFAFA"/>
<path d="M83.8982 201.313C84.2583 201.737 97.2999 219.176 97.2999 219.176L95.4646 220.216L82.0813 202.999L83.8982 201.313Z" fill="#11004D"/>
<path d="M134.802 213.753C134.802 213.753 122.57 234.848 121.743 235.236C120.114 236 101.344 219.78 99.5548 218.228C99.3086 217.899 98.7991 217.203 97.799 215.82C97.799 215.82 96.3184 209.044 94.7376 209.564C93.1574 210.084 95.6036 213.007 94.5751 215.582C93.5453 218.157 88.8319 212.016 88.6433 211.465L87.4279 209.876C87.4279 209.876 86.1531 213.49 86.2392 214.999C86.5162 219.834 91.0902 225.583 91.0902 225.583C91.0902 225.583 109.677 248.874 123.748 249.663C127.8 249.891 135.541 238.224 140.356 229.602C143.264 224.394 141.914 219.105 137.095 215.591L134.802 213.753Z" fill="#FFBE9D"/>
<path d="M88.5487 215.859C88.5077 215.886 87.9929 215.146 87.5029 214.152C87.01 213.159 86.7341 212.302 86.7804 212.286C86.8302 212.266 87.1808 213.086 87.6696 214.069C88.1548 215.055 88.5938 215.83 88.5487 215.859Z" fill="#EB996E"/>
<path d="M134.227 207.881C133.743 208.171 122.369 229.288 122.369 229.288L137.01 240.757C137.01 240.757 140.819 231.374 142.828 223.746C143.374 221.676 143.093 216.143 142.323 214.009C141.229 210.976 139.58 211.731 137.11 209.955L134.227 207.881Z" fill="#FF6D6E"/>
<g opacity="0.699997">
<g opacity="0.699997">
<path opacity="0.699997" d="M139.037 207.885C139.028 207.898 138.894 207.804 138.619 207.667C138.35 207.528 137.91 207.361 137.332 207.396C136.756 207.415 136.076 207.696 135.422 208.194C134.765 208.693 134.123 209.398 133.516 210.247C132.898 211.09 132.387 212.119 131.762 213.191C131.148 214.269 130.494 215.417 129.806 216.626C128.422 219.045 126.902 221.7 125.306 224.487C124.333 226.179 123.388 227.821 122.499 229.367L122.461 229.174C126.427 232.309 129.88 235.036 132.368 237.003C133.574 237.972 134.546 238.752 135.242 239.311C135.557 239.571 135.81 239.78 136.004 239.939C136.176 240.085 136.263 240.164 136.257 240.171C136.251 240.178 136.154 240.113 135.972 239.981C135.77 239.831 135.507 239.636 135.179 239.392C134.469 238.85 133.479 238.093 132.25 237.154C129.744 235.209 126.269 232.511 122.276 229.411L122.174 229.33L122.239 229.218C123.124 227.672 124.067 226.029 125.037 224.335C126.64 221.553 128.166 218.904 129.557 216.489C130.253 215.286 130.916 214.142 131.537 213.068C132.167 212.009 132.698 210.97 133.339 210.119C133.967 209.265 134.632 208.556 135.319 208.056C136.002 207.555 136.721 207.278 137.328 207.277C137.935 207.259 138.383 207.453 138.649 207.612C138.789 207.681 138.878 207.764 138.945 207.807C139.009 207.854 139.04 207.881 139.037 207.885Z" fill="#11004D"/>
</g>
</g>
<path d="M134.665 227.684C134.622 227.724 134.369 227.21 133.601 226.92C133.229 226.781 132.728 226.713 132.236 226.878C131.992 226.956 131.749 227.108 131.472 227.251C131.202 227.389 130.858 227.54 130.476 227.467C130.093 227.395 129.826 227.11 129.647 226.861C129.461 226.607 129.319 226.353 129.154 226.147C128.841 225.733 128.363 225.571 127.97 225.557C127.148 225.532 126.768 225.998 126.741 225.944C126.729 225.934 126.795 225.813 126.99 225.662C127.184 225.515 127.522 225.349 127.971 225.339C128.408 225.322 128.99 225.488 129.374 225.967C129.564 226.192 129.715 226.449 129.89 226.681C130.062 226.913 130.27 227.116 130.535 227.164C131.08 227.259 131.581 226.769 132.15 226.606C132.729 226.433 133.284 226.538 133.683 226.718C134.507 227.098 134.697 227.691 134.665 227.684Z" fill="#FAFAFA"/>
<path d="M141.355 224.956C141.302 224.983 141.197 224.42 140.535 223.933C140.215 223.699 139.752 223.499 139.233 223.525C138.977 223.534 138.701 223.615 138.396 223.678C138.099 223.738 137.728 223.79 137.379 223.617C137.03 223.445 136.85 223.099 136.745 222.811C136.634 222.516 136.566 222.233 136.462 221.99C136.273 221.507 135.856 221.222 135.482 221.102C134.697 220.857 134.206 221.203 134.194 221.144C134.185 221.131 134.282 221.032 134.51 220.939C134.736 220.85 135.106 220.782 135.542 220.892C135.967 220.994 136.483 221.311 136.723 221.876C136.845 222.144 136.921 222.432 137.027 222.702C137.131 222.972 137.276 223.224 137.518 223.341C138.017 223.581 138.632 223.243 139.224 223.24C139.828 223.229 140.334 223.481 140.67 223.761C141.361 224.349 141.384 224.971 141.355 224.956Z" fill="#FAFAFA"/>
<path d="M141.701 216.224C141.649 216.251 141.543 215.688 140.882 215.201C140.561 214.967 140.098 214.767 139.579 214.792C139.323 214.802 139.048 214.882 138.743 214.945C138.445 215.005 138.074 215.058 137.725 214.885C137.376 214.712 137.196 214.366 137.091 214.079C136.98 213.783 136.912 213.5 136.808 213.258C136.619 212.774 136.202 212.49 135.828 212.37C135.043 212.125 134.552 212.471 134.54 212.411C134.531 212.399 134.628 212.3 134.856 212.207C135.082 212.117 135.452 212.05 135.888 212.16C136.313 212.261 136.829 212.579 137.069 213.144C137.192 213.412 137.267 213.7 137.374 213.97C137.477 214.24 137.622 214.492 137.864 214.609C138.364 214.849 138.978 214.511 139.57 214.508C140.175 214.497 140.681 214.749 141.016 215.029C141.707 215.617 141.73 216.238 141.701 216.224Z" fill="#FAFAFA"/>
<path d="M138.459 236.29C138.406 236.318 138.301 235.754 137.639 235.268C137.319 235.033 136.856 234.833 136.336 234.859C136.081 234.869 135.805 234.949 135.5 235.012C135.203 235.072 134.832 235.124 134.483 234.951C134.133 234.779 133.954 234.433 133.849 234.146C133.738 233.85 133.67 233.567 133.566 233.325C133.377 232.841 132.96 232.557 132.585 232.436C131.801 232.191 131.309 232.537 131.298 232.478C131.288 232.465 131.385 232.366 131.614 232.274C131.84 232.184 132.21 232.116 132.646 232.226C133.071 232.328 133.587 232.645 133.827 233.211C133.949 233.479 134.024 233.766 134.131 234.037C134.234 234.306 134.38 234.558 134.622 234.675C135.121 234.915 135.735 234.577 136.327 234.574C136.932 234.563 137.438 234.815 137.773 235.095C138.464 235.684 138.487 236.305 138.459 236.29Z" fill="#FAFAFA"/>
<ellipse opacity="0.1" cx="115.463" cy="14.2263" rx="1.06556" ry="1.2546" fill="#11004D"/>
<ellipse opacity="0.1" cx="100.448" cy="22.7895" rx="1.42074" ry="1.6728" fill="#11004D"/>
<circle opacity="0.1" cx="313.67" cy="59.7996" r="2.5" fill="#11004D"/>
</g>
</svg>
