<svg width="375" height="317" viewBox="0 0 375 317" fill="none" xmlns="http://www.w3.org/2000/svg">
<mask id="mask0_246_10249" style="mask-type:alpha" maskUnits="userSpaceOnUse" x="0" y="0" width="375" height="317">
<rect width="375" height="317" fill="white"/>
</mask>
<g mask="url(#mask0_246_10249)">
<g opacity="0.1">
<path d="M396.661 25.454C344.769 131.081 307.967 57.5683 260.575 76.0837C213.182 94.5991 218.077 135.605 177.695 146.705C137.313 157.804 114.321 118.513 104.152 105.518C93.9841 92.5231 29.2429 34.596 -47.1251 65.8101" stroke="#11004D" stroke-width="0.5"/>
<path d="M76.1273 20.3354C114.068 60.5809 155.126 28.246 198.629 55.0259C237.889 79.1936 227.794 129.395 282.88 131.763C328.807 133.736 312.718 168.095 347.37 171.821C382.781 175.628 409.933 125.807 442.349 126.966" stroke="#11004D" stroke-width="0.5"/>
<path d="M77.6517 239.92C77.7417 223.043 109.779 132.153 166.113 130.506C227.577 128.709 228.376 172.783 269.757 174.904C308.583 176.893 317.069 143.603 344.08 140.939C371.091 138.275 385.133 171.576 412.542 169.245C439.95 166.914 445.115 141.934 449.725 130.298" stroke="#11004D" stroke-width="0.5"/>
</g>
<circle cx="323.501" cy="83.5" r="2.5" fill="#FF2A60"/>
<circle opacity="0.6" cx="51.5007" cy="68.5" r="2.5" fill="#FFCD00"/>
<circle opacity="0.4" cx="289.986" cy="152.312" r="0.922407" fill="#11004D"/>
<circle opacity="0.6" cx="359.166" cy="171.683" r="1.22988" fill="#225EFF"/>
<path d="M92.4242 183.624C82.8172 196.476 64.5861 199.089 51.7042 189.461C38.8224 179.833 36.1666 161.608 45.7736 148.755C55.38 135.902 73.611 133.29 86.4929 142.918C99.3748 152.547 102.031 170.772 92.4242 183.624Z" fill="#EFEBFB"/>
<path d="M86.8743 179.476C79.5534 189.27 65.6607 191.261 55.8432 183.923C46.027 176.586 44.0033 162.697 51.3236 152.904C58.6445 143.109 72.5378 141.118 82.354 148.455C92.1709 155.794 94.1945 169.681 86.8743 179.476Z" fill="#F9F9F9"/>
<path d="M87.2861 178.915C87.1756 178.839 87.683 178.002 88.4139 176.427C89.133 174.854 90.0581 172.495 90.4356 169.446C90.622 167.927 90.6727 166.243 90.4966 164.457C90.305 162.674 89.9087 160.788 89.1922 158.908C88.8374 157.967 88.4184 157.024 87.9058 156.106C87.3978 155.186 86.8274 154.274 86.1583 153.411C85.4931 152.548 84.7674 151.702 83.9501 150.925C83.1348 150.147 82.2526 149.417 81.308 148.746C80.3543 148.088 79.3649 147.509 78.3554 147.01C77.3445 146.508 76.3025 146.116 75.2624 145.787C74.2217 145.454 73.1699 145.231 72.1317 145.069C71.0936 144.902 70.0632 144.832 69.0589 144.821C67.0476 144.793 65.1376 145.066 63.3985 145.498C61.6607 145.945 60.0963 146.569 58.7327 147.266C55.999 148.667 54.1007 150.344 52.8703 151.558C51.6418 152.785 51.0298 153.549 50.9201 153.471C50.8375 153.415 51.2663 152.52 52.3785 151.116C53.492 149.728 55.3448 147.83 58.1558 146.211C59.5578 145.407 61.1897 144.676 63.0243 144.139C64.8609 143.618 66.8949 143.271 69.055 143.256C70.1328 143.245 71.2411 143.301 72.3604 143.463C73.4804 143.62 74.6173 143.848 75.7431 144.195C76.869 144.538 77.9968 144.955 79.0908 145.49C80.1841 146.023 81.2528 146.646 82.2805 147.356C83.2998 148.078 84.2503 148.869 85.1254 149.713C86.003 150.557 86.7807 151.474 87.4888 152.414C88.2008 153.352 88.8043 154.342 89.3351 155.34C89.871 156.336 90.3044 157.359 90.6636 158.375C91.3893 160.408 91.7615 162.438 91.9012 164.343C92.0253 166.25 91.8992 168.034 91.6251 169.627C91.0677 172.824 89.9198 175.215 88.9992 176.737C88.0618 178.264 87.3673 178.973 87.2861 178.915Z" fill="#E1E1E1"/>
<path d="M69.27 174.138C69.9794 173.159 69.5539 172.042 68.6567 170.75L65.86 174.607C67.4802 175.313 68.6217 175.032 69.27 174.138ZM69.348 163.919L72.224 159.951C70.5004 159.213 69.3259 159.598 68.6567 160.52C67.9486 161.497 68.4008 162.637 69.348 163.919ZM63.1854 178.295L60.9162 181.425L58.1227 179.398L60.3308 176.353C57.6861 174.179 55.6599 171.388 54.9946 169.073L59.003 166.777C59.65 168.825 61.115 171.038 62.9853 172.692L66.3687 168.026C63.8136 165.023 61.0994 161.477 63.9968 157.481C66.1452 154.52 70.1399 153.537 74.9187 156.235L77.1684 153.133L79.9626 155.16L77.7538 158.206C79.7274 159.893 81.3619 161.93 82.1896 164.023L78.3001 166.447C77.4621 164.603 76.3544 163.075 75.0792 161.893L71.6347 166.644C74.2093 169.618 76.8676 173.126 74.0111 177.064C71.9037 179.971 67.9571 180.945 63.1854 178.295Z" fill="#E0E0E0"/>
<path d="M267.3 266.341C258.964 277.492 243.146 279.76 231.968 271.406C220.79 263.051 218.486 247.238 226.822 236.086C235.157 224.934 250.976 222.667 262.154 231.022C273.331 239.376 275.635 255.189 267.3 266.341Z" fill="#EFEBFB"/>
<path d="M262.35 262.136C255.998 270.634 243.943 272.362 235.425 265.995C226.907 259.629 225.151 247.578 231.503 239.08C237.855 230.582 249.911 228.854 258.428 235.22C266.945 241.587 268.701 253.638 262.35 262.136Z" fill="#F9F9F9"/>
<path d="M262.842 262.255C262.746 262.189 263.186 261.463 263.821 260.096C264.444 258.732 265.246 256.685 265.575 254.039C265.736 252.721 265.78 251.26 265.628 249.71C265.461 248.164 265.117 246.526 264.495 244.895C264.188 244.079 263.824 243.26 263.379 242.465C262.939 241.667 262.444 240.875 261.863 240.126C261.286 239.376 260.657 238.643 259.947 237.969C259.24 237.294 258.474 236.661 257.655 236.078C256.827 235.507 255.969 235.005 255.092 234.572C254.216 234.137 253.312 233.796 252.409 233.51C251.506 233.222 250.594 233.028 249.693 232.887C248.792 232.743 247.898 232.682 247.026 232.672C245.281 232.648 243.624 232.885 242.115 233.26C240.607 233.648 239.251 234.19 238.066 234.794C235.695 236.01 234.048 237.465 232.98 238.519C231.914 239.583 231.383 240.246 231.288 240.178C231.216 240.13 231.588 239.352 232.554 238.134C233.519 236.931 235.127 235.283 237.566 233.878C238.783 233.18 240.199 232.547 241.791 232.081C243.384 231.628 245.149 231.328 247.022 231.315C247.959 231.305 248.919 231.354 249.891 231.495C250.863 231.63 251.849 231.828 252.826 232.129C253.804 232.427 254.782 232.789 255.731 233.253C256.68 233.715 257.607 234.256 258.499 234.872C259.383 235.498 260.208 236.184 260.967 236.917C261.729 237.65 262.404 238.446 263.018 239.26C263.636 240.074 264.159 240.935 264.62 241.801C265.085 242.665 265.461 243.551 265.773 244.433C266.402 246.197 266.726 247.959 266.847 249.611C266.954 251.266 266.845 252.814 266.607 254.197C266.123 256.97 265.128 259.045 264.328 260.366C263.515 261.69 262.912 262.306 262.842 262.255Z" fill="#E1E1E1"/>
<path d="M247.21 258.111C247.825 257.261 247.456 256.292 246.678 255.171L244.251 258.517C245.656 259.13 246.647 258.886 247.21 258.111ZM247.277 249.244L249.773 245.801C248.278 245.159 247.258 245.494 246.678 246.294C246.063 247.142 246.456 248.132 247.277 249.244ZM241.93 261.717L239.962 264.433L237.537 262.674L239.454 260.032C237.159 258.146 235.4 255.725 234.823 253.715L238.301 251.724C238.863 253.5 240.134 255.42 241.757 256.856L244.692 252.807C242.476 250.201 240.12 247.125 242.635 243.658C244.499 241.087 247.965 240.235 252.111 242.577L254.063 239.885L256.487 241.643L254.571 244.286C256.284 245.751 257.702 247.518 258.42 249.333L255.046 251.438C254.318 249.838 253.357 248.512 252.25 247.486L249.261 251.608C251.495 254.189 253.802 257.231 251.324 260.649C249.495 263.171 246.07 264.017 241.93 261.717Z" fill="#E0E0E0"/>
<path d="M114.515 92.7059C112.845 101.697 104.185 107.629 95.1735 105.955C86.1616 104.281 80.2095 95.6358 81.8804 86.6447C83.5493 77.6535 92.2091 71.7216 101.221 73.3957C110.233 75.0699 116.184 83.7154 114.515 92.7059Z" fill="#EFEBFB"/>
<path d="M110.496 91.8574C109.224 98.7086 102.625 103.229 95.7572 101.954C88.8897 100.678 84.3539 94.0896 85.6265 87.2384C86.8992 80.3866 93.4983 75.8657 100.366 77.1416C107.233 78.4175 111.768 85.0056 110.496 91.8574Z" fill="#F9F9F9"/>
<path d="M110.701 91.5946C110.625 91.5836 110.674 91.0275 110.65 90.0381C110.621 89.0532 110.499 87.6142 109.924 85.9609C109.636 85.1371 109.238 84.264 108.697 83.3954C108.15 82.5327 107.471 81.668 106.631 80.8878C106.213 80.4967 105.761 80.1199 105.268 79.7801C104.776 79.4384 104.255 79.1162 103.695 78.8433C103.138 78.5692 102.553 78.3203 101.94 78.1293C101.327 77.9371 100.692 77.7863 100.04 77.6817C99.3865 77.5862 98.7349 77.5388 98.093 77.5388C97.4499 77.5375 96.8184 77.5992 96.2038 77.6934C95.588 77.7857 94.9935 77.9364 94.4225 78.1151C93.8502 78.2918 93.3058 78.5159 92.7893 78.7634C91.7537 79.2558 90.8468 79.8776 90.0673 80.5369C89.2916 81.2028 88.6497 81.9168 88.1274 82.6165C87.0841 84.0217 86.5364 85.3573 86.2135 86.2883C85.8952 87.2251 85.775 87.7701 85.699 87.7571C85.6425 87.75 85.636 87.1835 85.851 86.1856C86.07 85.1962 86.5384 83.7586 87.5674 82.2228C88.0813 81.4581 88.7303 80.6734 89.5332 79.9367C90.3408 79.2071 91.2925 78.5165 92.3923 77.965C92.9413 77.6869 93.5214 77.4368 94.1347 77.2374C94.7467 77.0353 95.3853 76.8651 96.0479 76.7586C96.7099 76.6501 97.3914 76.5786 98.0859 76.576C98.779 76.5728 99.4826 76.6222 100.186 76.7255C100.889 76.8378 101.574 77.0022 102.235 77.2133C102.896 77.4238 103.525 77.696 104.124 77.9981C104.724 78.2983 105.283 78.6523 105.805 79.0285C106.33 79.402 106.809 79.8158 107.249 80.2446C108.133 81.1008 108.835 82.0448 109.387 82.9829C109.93 83.9262 110.316 84.8701 110.577 85.7536C111.098 87.5278 111.115 89.0389 111.028 90.0497C110.933 91.0664 110.757 91.6037 110.701 91.5946Z" fill="#E1E1E1"/>
<path d="M100.289 93.695C100.404 93.0162 99.9053 92.5517 99.1212 92.1177L98.6639 94.7936C99.6702 94.7468 100.183 94.3155 100.289 93.695ZM97.7517 88.4517L98.2214 85.6985C97.1547 85.7557 96.6512 86.2488 96.5421 86.8887C96.4265 87.5669 96.9449 88.0353 97.7517 88.4517ZM98.2266 97.3532L97.8557 99.5256L95.9171 99.1937L96.2777 97.0804C94.3781 96.636 92.639 95.7206 91.7152 94.7046L93.1854 92.5211C94.0325 93.4046 95.3383 94.166 96.7123 94.5402L97.2645 91.3017C95.2019 90.4117 92.9203 89.2833 93.3939 86.5099C93.7454 84.4551 95.5397 82.946 98.6626 83.1201L99.0303 80.9678L100.969 81.2984L100.608 83.4124C102.043 83.7775 103.391 84.407 104.342 85.2671L102.965 87.487C102.073 86.7561 101.12 86.254 100.171 85.9714L99.6078 89.2683C101.674 90.1395 103.917 91.2615 103.45 93.9952C103.105 96.0117 101.333 97.5052 98.2266 97.3532Z" fill="#E0E0E0"/>
<path d="M329.105 316.409C329.105 316.503 269.024 316.578 194.926 316.578C120.801 316.578 60.7323 316.503 60.7323 316.409C60.7323 316.315 120.801 316.24 194.926 316.24C269.024 316.24 329.105 316.315 329.105 316.409Z" fill="#11004D"/>
<path d="M140.055 111.884C140.055 111.884 140.616 82.7756 116.537 67.9857H192.863C192.863 67.9857 214.684 85.6698 214.867 111.884H140.055Z" fill="#EFEBFB"/>
<path d="M187.043 78.6053C187.043 78.6988 178.327 78.7742 167.578 78.7742C156.825 78.7742 148.111 78.6988 148.111 78.6053C148.111 78.5117 156.825 78.4364 167.578 78.4364C178.327 78.4364 187.043 78.5117 187.043 78.6053Z" fill="#375A64"/>
<path d="M195.374 83.8675C195.374 83.961 183.822 84.0364 169.576 84.0364C155.324 84.0364 143.775 83.961 143.775 83.8675C143.775 83.7739 155.324 83.6986 169.576 83.6986C183.822 83.6986 195.374 83.7739 195.374 83.8675Z" fill="#11004D"/>
<path d="M199.71 97.1884C199.71 97.2819 188.158 97.3579 173.912 97.3579C159.66 97.3579 148.111 97.2819 148.111 97.1884C148.111 97.0948 159.66 97.0194 173.912 97.0194C188.158 97.0194 199.71 97.0948 199.71 97.1884Z" fill="#11004D"/>
<path d="M172.753 89.9351C172.753 89.9585 172.377 89.9806 171.696 90.0007C170.956 90.015 169.986 90.0325 168.814 90.0546C166.38 90.0852 163.017 90.104 159.303 90.104C155.588 90.104 152.226 90.0852 149.792 90.0546C148.62 90.0325 147.648 90.015 146.909 90.0007C146.228 89.9806 145.852 89.9585 145.852 89.9351C145.852 89.9117 146.228 89.8896 146.909 89.8688C147.648 89.8552 148.62 89.837 149.792 89.8149C152.226 89.785 155.588 89.7655 159.303 89.7655C163.017 89.7655 166.38 89.785 168.814 89.8149C169.986 89.837 170.957 89.8552 171.696 89.8688C172.377 89.8896 172.753 89.9117 172.753 89.9351Z" fill="#11004D"/>
<path d="M195.373 89.9351C195.373 89.9585 195.095 89.9806 194.593 90.0007C194.019 90.0157 193.307 90.0332 192.464 90.0546C190.665 90.0852 188.182 90.104 185.438 90.104C182.694 90.104 180.211 90.0852 178.412 90.0546C177.569 90.0332 176.857 90.0157 176.284 90.0007C175.781 89.9806 175.503 89.9585 175.503 89.9351C175.503 89.9117 175.781 89.8896 176.284 89.8688C176.857 89.8545 177.569 89.837 178.412 89.8149C180.211 89.785 182.694 89.7655 185.438 89.7655C188.182 89.7655 190.665 89.785 192.464 89.8149C193.307 89.837 194.02 89.8545 194.593 89.8688C195.095 89.8896 195.373 89.9117 195.373 89.9351Z" fill="#11004D"/>
<path d="M177.539 104.331C177.539 104.355 177.162 104.377 176.482 104.397C175.742 104.411 174.771 104.429 173.599 104.451C171.165 104.481 167.802 104.501 164.088 104.501C160.374 104.501 157.01 104.481 154.577 104.451C153.405 104.429 152.434 104.411 151.694 104.397C151.013 104.377 150.637 104.355 150.637 104.331C150.637 104.308 151.013 104.286 151.694 104.266C152.434 104.251 153.405 104.234 154.577 104.212C157.01 104.181 160.374 104.162 164.088 104.162C167.802 104.162 171.165 104.181 173.599 104.212C174.771 104.234 175.742 104.251 176.482 104.266C177.162 104.286 177.539 104.308 177.539 104.331Z" fill="#11004D"/>
<path d="M200.158 104.331C200.158 104.355 199.88 104.377 199.378 104.397C198.805 104.412 198.092 104.429 197.249 104.451C195.45 104.481 192.967 104.501 190.224 104.501C187.479 104.501 184.996 104.481 183.198 104.451C182.354 104.429 181.642 104.412 181.069 104.397C180.566 104.377 180.288 104.355 180.288 104.331C180.288 104.308 180.566 104.286 181.069 104.266C181.642 104.251 182.354 104.233 183.198 104.212C184.996 104.181 187.479 104.162 190.224 104.162C192.967 104.162 195.45 104.181 197.249 104.212C198.092 104.233 198.805 104.251 199.378 104.266C199.88 104.286 200.158 104.308 200.158 104.331Z" fill="#11004D"/>
<path d="M124.449 111.057H214.705H237.062L243.19 306.146C243.368 311.774 238.853 316.433 233.221 316.433H116.125C112.69 316.433 109.859 313.737 109.691 310.307L104.275 200.146C104.275 200.146 70.8819 188.014 71.4173 151.028C71.4173 151.028 72.9634 111.057 124.449 111.057Z" fill="#282A30"/>
<path d="M130.533 316.13L125.616 111.058H241.147L243.234 307.507C243.387 312.386 239.465 316.422 234.584 316.409L130.533 316.13Z" fill="#51C469"/>
<path d="M135.195 122.94L137.535 218.427H231.594L230.332 122.94H135.195Z" fill="#282A30"/>
<path d="M145.605 135.297C150.194 136.539 155.999 136.012 160.713 135.784C162.408 135.703 162.41 133.232 160.713 133.15C155.994 132.922 150.19 132.396 145.605 133.637C144.786 133.86 144.786 135.075 145.605 135.297Z" fill="white"/>
<path d="M168.742 135.106C173.25 136.256 179.078 136.053 183.68 135.607C185.353 135.445 185.356 133.166 183.68 133.003C179.075 132.558 173.243 132.357 168.742 133.505C167.952 133.707 167.951 134.903 168.742 135.106Z" fill="white"/>
<path d="M191.569 134.701C193.839 135.39 196.287 135.271 198.641 135.311C201.041 135.351 203.463 135.512 205.843 135.171C207.02 135.003 207.021 132.961 205.843 132.792C203.463 132.452 201.041 132.612 198.641 132.653C196.287 132.692 193.839 132.574 191.569 133.262C190.86 133.477 190.859 134.486 191.569 134.701Z" fill="white"/>
<path d="M212.722 134.826C214.446 135.104 216.143 135.187 217.888 135.225C219.606 135.263 221.457 135.546 223.121 135.068C224.191 134.76 224.192 133.203 223.121 132.895C221.457 132.417 219.606 132.7 217.888 132.738C216.143 132.777 214.446 132.86 212.722 133.138C211.886 133.272 211.886 134.691 212.722 134.826Z" fill="white"/>
<path d="M164.826 249.266H137.563V229.781H164.826V249.266Z" fill="#F6F6F6"/>
<path d="M137.563 249.266H142.495V229.781H137.563V249.266Z" fill="#282A30"/>
<path d="M198.21 249.266H170.947V229.781H198.21V249.266Z" fill="#F6F6F6"/>
<path d="M170.662 249.266H175.594V229.781H170.662V249.266Z" fill="#282A30"/>
<path d="M231.595 249.266H204.332V229.781H231.595V249.266Z" fill="#F6F6F6"/>
<path d="M203.549 249.266H208.482V229.781H203.549V249.266Z" fill="#282A30"/>
<path d="M231.595 275.187H204.332V255.702H231.595V275.187Z" fill="#F6F6F6"/>
<path d="M204.332 275.187H209.412V255.702H204.332V275.187Z" fill="#282A30"/>
<path d="M164.826 275.187H137.563V255.702H164.826V275.187Z" fill="#F6F6F6"/>
<path d="M137.563 275.152H142.495V255.667H137.563V275.152Z" fill="#282A30"/>
<path d="M164.826 300.849H137.563V281.365H164.826V300.849Z" fill="#F6F6F6"/>
<path d="M137.563 300.849H142.495V281.365H137.563V300.849Z" fill="#282A30"/>
<path d="M198.058 275.187H170.796V255.702H198.058V275.187Z" fill="#F6F6F6"/>
<path d="M170.796 275.152H175.729V255.667H170.796V275.152Z" fill="#282A30"/>
<path d="M198.21 300.849H170.947V281.365H198.21V300.849Z" fill="#F6F6F6"/>
<path d="M170.947 300.849H175.879V281.365H170.947V300.849Z" fill="#282A30"/>
<path d="M231.595 300.849H204.332V281.365H231.595V300.849Z" fill="#F9A910"/>
<path d="M204.332 300.849H209.264V281.365H204.332V300.849Z" fill="#282A30"/>
<path d="M121.567 316.433C121.1 316.447 119.389 270.479 117.745 213.775C116.101 157.051 115.147 111.071 115.614 111.057C116.081 111.044 117.792 157.001 119.436 213.725C121.08 270.429 122.033 316.419 121.567 316.433Z" fill="#282A30"/>
<path d="M231.451 207.553V211.053L242.237 213.733L242.18 208.335L231.451 207.553Z" fill="#375A64"/>
<path d="M85.8027 240.419L83.6154 241.11L75.6377 215.868L77.825 215.176L85.8027 240.419ZM100.66 288.096L98.4722 288.787L84.7178 245.266L86.9052 244.574L100.66 288.096ZM91.6898 291.839L89.4609 284.787L91.6489 284.095L93.8772 291.148L91.6898 291.839ZM78.0206 248.674L80.2079 247.983L90.6335 280.968L88.4455 281.659L78.0206 248.674ZM76.7278 245.477L72.9631 233.565L75.1511 232.873L78.9151 244.785L76.7278 245.477ZM71.6709 230.367L67.9062 218.455L70.0936 217.764L73.8583 229.676L71.6709 230.367ZM67.1916 241.627L60.7321 221.188L62.9195 220.496L69.379 240.936L67.1916 241.627ZM100.54 200.46C99.9521 200.219 99.3109 200.121 98.6807 200.155C98.0453 200.18 97.4483 200.394 96.8234 200.606C94.3475 201.436 91.8886 202.26 89.4472 203.078C84.5645 204.714 79.7532 206.326 75.0257 207.911C65.5701 211.077 56.449 214.132 47.7606 217.041C46.6744 217.348 45.7265 218.015 45.1425 218.954C44.5513 219.878 44.3285 221.019 44.5221 222.082C44.615 222.609 44.8229 223.131 44.9931 223.659C45.1691 224.184 45.3439 224.708 45.5187 225.23C45.8682 226.274 46.2151 227.31 46.5594 228.34C47.9366 232.456 49.2736 236.452 50.5664 240.316C53.1494 248.043 55.5564 255.242 57.7535 261.815C62.1373 274.957 65.6851 285.593 68.1394 292.95C69.3575 296.625 70.3041 299.479 70.9479 301.42C71.2642 302.386 71.5059 303.124 71.6709 303.626C71.8314 304.121 71.9054 304.377 71.9061 304.38L71.9067 304.38V304.381C71.9256 304.374 71.9853 304.64 72.24 305.096C72.4888 305.546 72.9481 306.206 73.8089 306.753C74.6541 307.282 75.9651 307.681 77.4054 307.272C78.8209 306.82 80.4496 306.249 82.2855 305.635C88.8775 303.414 98.111 300.302 109.415 296.493L80.4944 206.102L94.9693 201.25L121.106 281.324L119.96 253.463C114.7 237.785 109.014 220.836 103.08 203.148C102.68 201.931 101.72 200.93 100.54 200.46Z" fill="#F9A910"/>
<path d="M109.447 296.662L109.415 296.562C98.1115 300.371 88.878 303.482 82.286 305.703C80.4501 306.317 78.8214 306.888 77.4059 307.341C75.9656 307.75 74.6546 307.35 73.8094 306.823C72.9486 306.275 72.4893 305.615 72.2405 305.164C71.9858 304.71 71.9261 304.443 71.9072 304.45V304.449C71.9072 304.449 71.9267 304.513 71.9722 304.637C72.0144 304.764 72.0872 304.949 72.2119 305.179C72.4536 305.639 72.9083 306.312 73.7756 306.877C74.6267 307.42 75.9578 307.838 77.4305 307.431C78.8598 306.985 80.4839 306.425 82.325 305.819C89.6829 303.365 100.32 299.816 113.463 295.433C115.843 294.637 118.308 293.814 120.848 292.965L121.568 292.599L109.447 296.662Z" fill="#11004D"/>
<path opacity="0.8" d="M71.6708 303.695C71.5065 303.193 71.2648 302.455 70.9478 301.489C70.304 299.547 69.3574 296.693 68.1393 293.019C65.6856 285.662 62.1372 275.026 57.7534 261.883C55.5563 255.311 53.15 248.112 50.5663 240.385C49.2735 236.521 47.9366 232.524 46.5593 228.408C46.215 227.379 45.8681 226.343 45.5192 225.299C45.3445 224.777 45.1691 224.253 44.993 223.728C44.8235 223.199 44.6149 222.678 44.522 222.151C44.3284 221.087 44.5512 219.947 45.1424 219.023C45.7265 218.084 46.6743 217.417 47.7605 217.11C56.4496 214.2 65.57 211.146 75.0256 207.979C79.7531 206.396 84.5644 204.783 89.4472 203.147C91.8885 202.329 94.3481 201.504 96.8233 200.675C97.4482 200.462 98.0453 200.249 98.6813 200.225C99.3108 200.19 99.9526 200.288 100.54 200.529C101.72 200.999 102.68 201.999 103.081 203.217C109.015 220.905 114.7 237.853 119.96 253.531L119.917 252.483C114.754 237.071 109.185 220.449 103.378 203.117C102.95 201.814 101.92 200.739 100.656 200.237C100.027 199.98 99.3394 199.874 98.6637 199.911C97.9822 199.936 97.3313 200.171 96.7239 200.377C94.2481 201.207 91.7891 202.032 89.3478 202.85C84.4657 204.488 79.655 206.102 74.9275 207.688C65.4745 210.861 56.3554 213.92 47.6689 216.836C46.5515 217.15 45.5127 217.873 44.9008 218.869C44.2725 219.853 44.0361 221.068 44.2433 222.201C44.3466 222.774 44.5577 223.291 44.726 223.817C44.9027 224.343 45.0781 224.866 45.2535 225.388C45.6037 226.431 45.9525 227.468 46.2975 228.496C47.68 232.611 49.0221 236.605 50.3195 240.468C52.9161 248.191 55.3348 255.386 57.5429 261.954C61.967 275.083 65.5472 285.708 68.0237 293.058C69.2658 296.725 70.2312 299.571 70.888 301.509C71.2174 302.47 71.4688 303.205 71.6403 303.705C71.8118 304.199 71.9067 304.449 71.9067 304.449V304.448C71.906 304.446 71.8313 304.19 71.6708 303.695Z" fill="#FFDA65"/>
<path d="M98.4722 288.856L100.66 288.165L86.9045 244.643L84.7172 245.335L98.4722 288.856Z" fill="#FAFAFA"/>
<path d="M75.6373 215.936L83.615 241.178L85.8024 240.488L77.8247 215.245L75.6373 215.936Z" fill="#FAFAFA"/>
<path d="M70.0937 217.833L67.9064 218.524L71.6704 230.436L73.8578 229.745L70.0937 217.833Z" fill="#FAFAFA"/>
<path d="M60.7318 221.257L67.1913 241.696L69.3793 241.004L62.9192 220.566L60.7318 221.257Z" fill="#FAFAFA"/>
<path d="M89.4607 284.856L91.6896 291.908L93.877 291.217L91.6487 284.165L89.4607 284.856Z" fill="#FAFAFA"/>
<path d="M75.1506 232.942L72.9633 233.633L76.728 245.545L78.9153 244.854L75.1506 232.942Z" fill="#FAFAFA"/>
<path d="M80.2087 248.051L78.0214 248.743L88.4463 281.729L90.6336 281.037L80.2087 248.051Z" fill="#FAFAFA"/>
<path d="M80.4946 206.171L109.415 296.562L109.447 296.662L121.567 292.599L121.106 281.392L94.9701 201.319L80.4946 206.171Z" fill="#FAFAFA"/>
<path d="M109.285 302.064L121.031 297.928L120.781 292.776L109.447 296.663L109.285 302.064Z" fill="#11004D"/>
<path d="M257.383 152.518C257.38 152.611 257.014 152.67 256.564 152.649C256.114 152.629 255.754 152.537 255.76 152.443C255.767 152.351 256.133 152.291 256.579 152.312C257.025 152.332 257.385 152.424 257.383 152.518Z" fill="#11004D"/>
<path d="M263.759 152.248C263.77 152.341 263.063 152.471 262.18 152.539C261.297 152.607 260.578 152.586 260.576 152.492C260.572 152.399 261.279 152.269 262.154 152.202C263.029 152.134 263.748 152.155 263.759 152.248Z" fill="#11004D"/>
<path d="M270.041 151.123C270.063 151.214 269.38 151.437 268.515 151.622C267.649 151.807 266.934 151.882 266.918 151.79C266.902 151.698 267.586 151.475 268.444 151.291C269.303 151.108 270.018 151.033 270.041 151.123Z" fill="#11004D"/>
<path d="M276.12 149.179C276.155 149.265 275.507 149.577 274.673 149.875C273.839 150.172 273.141 150.342 273.113 150.252C273.085 150.163 273.732 149.851 274.56 149.556C275.386 149.261 276.085 149.093 276.12 149.179Z" fill="#11004D"/>
<path d="M281.88 146.431C281.926 146.513 281.327 146.91 280.541 147.318C279.755 147.727 279.087 147.989 279.047 147.905C279.008 147.82 279.606 147.423 280.385 147.018C281.164 146.613 281.833 146.35 281.88 146.431Z" fill="#11004D"/>
<path d="M287.187 142.888C287.246 142.962 286.711 143.442 285.992 143.961C285.275 144.48 284.652 144.837 284.6 144.759C284.548 144.681 285.084 144.201 285.794 143.687C286.506 143.172 287.129 142.816 287.187 142.888Z" fill="#11004D"/>
<path d="M291.877 138.564C291.945 138.627 291.495 139.186 290.868 139.813C290.242 140.44 289.684 140.891 289.621 140.822C289.559 140.753 290.009 140.194 290.629 139.574C291.248 138.953 291.808 138.502 291.877 138.564Z" fill="#11004D"/>
<path d="M295.758 133.502C295.837 133.551 295.491 134.181 294.983 134.907C294.475 135.635 294.004 136.178 293.93 136.12C293.857 136.063 294.204 135.433 294.706 134.714C295.207 133.995 295.679 133.452 295.758 133.502Z" fill="#11004D"/>
<path d="M298.613 127.802C298.701 127.834 298.484 128.52 298.128 129.332C297.771 130.145 297.415 130.769 297.332 130.726C297.249 130.684 297.466 129.998 297.818 129.197C298.169 128.394 298.525 127.77 298.613 127.802Z" fill="#11004D"/>
<path d="M300.302 121.653C300.394 121.67 300.31 122.383 300.114 123.248C299.917 124.112 299.685 124.792 299.595 124.766C299.504 124.74 299.589 124.027 299.784 123.172C299.978 122.317 300.21 121.637 300.302 121.653Z" fill="#11004D"/>
<path d="M300.955 115.309C301.049 115.31 301.079 116.028 301.023 116.912C300.967 117.795 300.846 118.503 300.753 118.492C300.66 118.483 300.629 117.765 300.685 116.89C300.741 116.015 300.862 115.307 300.955 115.309Z" fill="#11004D"/>
<path d="M300.637 108.937C300.73 108.925 300.867 109.631 300.945 110.513C301.023 111.395 301.01 112.114 300.917 112.117C300.823 112.121 300.685 111.416 300.608 110.542C300.531 109.668 300.544 108.95 300.637 108.937Z" fill="#11004D"/>
<path d="M299.343 102.69C299.433 102.663 299.679 103.339 299.893 104.198C300.107 105.058 300.206 105.77 300.114 105.788C300.022 105.806 299.776 105.131 299.564 104.28C299.353 103.429 299.253 102.718 299.343 102.69Z" fill="#11004D"/>
<path d="M297.027 96.747C297.111 96.7048 297.469 97.3278 297.826 98.1386C298.184 98.95 298.404 99.6341 298.316 99.6672C298.229 99.7003 297.871 99.0773 297.517 98.2756C297.163 97.474 296.944 96.7893 297.027 96.747Z" fill="#11004D"/>
<path d="M293.641 91.3449C293.715 91.287 294.186 91.8295 294.694 92.5558C295.202 93.2834 295.55 93.9123 295.469 93.961C295.39 94.0104 294.919 93.4679 294.417 92.75C293.915 92.0322 293.568 91.4033 293.641 91.3449Z" fill="#11004D"/>
<path d="M289.2 86.7724C289.258 86.7003 289.866 87.0947 290.518 87.6969C291.172 88.2991 291.614 88.8727 291.547 88.9364C291.478 89.002 290.933 88.5395 290.289 87.9457C289.646 87.3513 289.14 86.8458 289.2 86.7724Z" fill="#11004D"/>
<path d="M285.229 84.0344C285.274 83.9532 285.624 84.0773 286.01 84.3125C286.397 84.5476 286.668 84.8017 286.617 84.8796C286.566 84.9576 286.215 84.8328 285.835 84.6016C285.454 84.3696 285.182 84.1156 285.229 84.0344Z" fill="#11004D"/>
<path d="M290.118 77.5062C290.118 89.9359 280.042 100.012 267.612 100.012C255.183 100.012 245.107 89.9359 245.107 77.5062C245.107 65.0765 255.183 55.0004 267.612 55.0004C280.042 55.0004 290.118 65.0765 290.118 77.5062Z" fill="#F9A910"/>
<path d="M254.302 79.2175L257.784 75.7341L264.502 81.7056L277.688 69.0167L280.923 72.5001L264.005 88.4224L254.302 79.2175Z" fill="#FAFAFA"/>
<path d="M286.792 134.971C285.448 137.216 285.581 140.029 285.959 142.618C286.338 145.207 286.92 147.857 286.34 150.409C285.957 152.089 285.075 153.771 285.485 155.446C285.776 156.629 286.67 157.57 287.111 158.705C287.741 160.325 287.388 162.134 287.177 163.86C286.966 165.585 286.97 167.521 288.117 168.827C289.54 170.447 292.159 170.376 294.106 169.451C296.054 168.525 297.603 166.942 299.408 165.763C301.214 164.585 303.563 163.821 305.509 164.752C306.403 165.179 307.178 165.947 308.166 166.024C309.548 166.132 310.638 164.86 311.976 164.493C313.125 164.179 314.352 164.561 315.536 164.429C317.947 164.161 319.725 161.565 319.388 159.162C319.052 156.76 316.899 154.827 314.506 154.428C313.485 154.257 312.259 154.235 311.696 153.366C310.867 152.088 312.328 150.436 312.071 148.934C311.886 147.853 310.858 147.13 309.853 146.694C308.846 146.258 307.736 145.957 306.953 145.19C305.557 143.824 305.716 141.589 305.288 139.683C304.581 136.539 301.634 130.101 295.23 129.467" fill="#11004D"/>
<path d="M283.823 313.88L283.945 309.295L292.537 309.469L292.429 316.179L291.896 316.203C289.523 316.287 279.822 316.461 278.247 315.949C276.49 315.377 283.823 313.88 283.823 313.88Z" fill="#FF8687"/>
<path d="M289.316 316.05C289.453 315.334 289.866 314.676 290.449 314.24C291.033 313.804 291.745 313.583 292.47 313.656L292.423 316.057L289.316 316.05Z" fill="#FF6D6E"/>
<path d="M280.238 314.739C280.238 314.739 277.665 315.426 277.976 315.853C278.286 316.28 288.095 316.473 292.43 316.18L292.42 315.987L280.976 315.861C280.976 315.861 280.738 314.77 280.238 314.739Z" fill="#FF6D6E"/>
<path d="M292.555 315.985C292.555 315.989 292.503 315.993 292.406 315.998C292.279 316.003 292.139 316.009 291.982 316.015C291.557 316.025 291.034 316.037 290.419 316.052C289.099 316.074 287.275 316.079 285.261 316.041C283.247 316.002 281.424 315.928 280.106 315.857C279.492 315.819 278.97 315.787 278.546 315.761C278.388 315.749 278.249 315.738 278.122 315.728C278.025 315.72 277.975 315.713 277.975 315.709C277.975 315.706 278.026 315.705 278.123 315.707C278.251 315.711 278.39 315.716 278.548 315.721C278.972 315.738 279.494 315.759 280.11 315.783C281.428 315.836 283.25 315.898 285.263 315.937C287.276 315.974 289.099 315.981 290.418 315.978C291.034 315.977 291.556 315.976 291.981 315.974C292.138 315.976 292.279 315.976 292.406 315.977C292.503 315.979 292.555 315.982 292.555 315.985Z" fill="#11004D"/>
<path d="M280.976 315.994C280.944 315.998 280.927 315.624 280.698 315.243C280.477 314.858 280.159 314.661 280.177 314.635C280.184 314.609 280.549 314.778 280.788 315.19C281.031 315.6 281.001 316.001 280.976 315.994Z" fill="#11004D"/>
<path d="M283.535 314.757C283.511 314.772 283.392 314.623 283.272 314.423C283.149 314.223 283.071 314.049 283.095 314.034C283.12 314.019 283.239 314.169 283.36 314.368C283.481 314.568 283.56 314.743 283.535 314.757Z" fill="#11004D"/>
<path d="M284.238 314.403C284.219 314.424 284.085 314.332 283.94 314.195C283.794 314.06 283.692 313.932 283.711 313.912C283.732 313.89 283.865 313.984 284.01 314.119C284.156 314.255 284.258 314.383 284.238 314.403Z" fill="#11004D"/>
<path d="M284.694 313.601C284.693 313.63 284.492 313.651 284.245 313.649C283.996 313.647 283.796 313.622 283.796 313.593C283.796 313.564 283.998 313.543 284.246 313.545C284.493 313.547 284.694 313.572 284.694 313.601Z" fill="#11004D"/>
<path d="M284.856 313.032C284.866 313.058 284.645 313.153 284.353 313.168C284.061 313.185 283.832 313.115 283.838 313.089C283.843 313.06 284.071 313.08 284.347 313.064C284.625 313.049 284.848 313.003 284.856 313.032Z" fill="#11004D"/>
<path d="M283.259 314.002C283.259 314.014 283.047 314.036 282.707 313.989C282.538 313.964 282.337 313.92 282.122 313.847C282.015 313.806 281.903 313.776 281.788 313.701C281.734 313.664 281.675 313.611 281.655 313.528C281.633 313.444 281.679 313.352 281.742 313.308C282.276 313.045 282.798 313.353 282.989 313.629C283.094 313.771 283.14 313.907 283.162 314.001C283.182 314.096 283.179 314.15 283.173 314.151C283.153 314.157 283.14 313.933 282.931 313.674C282.828 313.548 282.67 313.424 282.465 313.359C282.271 313.297 281.995 313.277 281.807 313.391C281.718 313.454 281.75 313.557 281.846 313.618C281.935 313.678 282.053 313.716 282.154 313.757C282.361 313.832 282.555 313.883 282.72 313.915C283.049 313.981 283.259 313.985 283.259 314.002Z" fill="#11004D"/>
<path d="M283.116 314.027C283.107 314.033 283.029 313.89 283.059 313.642C283.075 313.521 283.123 313.377 283.218 313.242C283.318 313.121 283.447 312.955 283.683 312.969C283.811 312.988 283.871 313.135 283.848 313.228C283.836 313.324 283.791 313.407 283.75 313.472C283.665 313.609 283.57 313.718 283.482 313.801C283.306 313.967 283.168 314.029 283.162 314.018C283.153 314.005 283.274 313.922 283.429 313.75C283.507 313.664 283.591 313.555 283.668 313.423C283.746 313.308 283.802 313.099 283.664 313.071C283.526 313.056 283.382 313.191 283.295 313.299C283.207 313.417 283.156 313.544 283.132 313.655C283.085 313.878 283.134 314.023 283.116 314.027Z" fill="#11004D"/>
<path d="M292.426 313.63C292.423 313.65 292.18 313.603 291.791 313.641C291.406 313.675 290.867 313.823 290.395 314.185C289.922 314.546 289.64 315.027 289.506 315.39C289.367 315.755 289.35 316.003 289.33 316C289.324 316 289.322 315.938 289.333 315.827C289.345 315.716 289.374 315.556 289.436 315.366C289.556 314.986 289.84 314.479 290.331 314.101C290.824 313.725 291.388 313.584 291.785 313.567C291.985 313.557 292.147 313.57 292.258 313.589C292.367 313.606 292.427 313.625 292.426 313.63Z" fill="#11004D"/>
<path d="M291.605 310.038C291.634 310.038 291.651 310.829 291.645 311.804C291.638 312.78 291.61 313.57 291.58 313.57C291.552 313.57 291.534 312.779 291.541 311.803C291.547 310.828 291.576 310.038 291.605 310.038Z" fill="#11004D"/>
<path d="M288.251 315.191C288.254 315.217 287.693 315.298 286.994 315.29C286.296 315.285 285.736 315.192 285.74 315.165C285.744 315.135 286.303 315.18 286.995 315.186C287.687 315.194 288.249 315.16 288.251 315.191Z" fill="#11004D"/>
<path d="M289.935 315.221C289.956 315.242 289.887 315.339 289.827 315.467C289.766 315.593 289.734 315.708 289.704 315.705C289.677 315.704 289.663 315.569 289.733 315.422C289.803 315.275 289.918 315.2 289.935 315.221Z" fill="#11004D"/>
<path d="M290.585 314.444C290.605 314.464 290.548 314.553 290.458 314.641C290.367 314.729 290.277 314.784 290.257 314.763C290.237 314.743 290.294 314.655 290.384 314.566C290.475 314.478 290.566 314.423 290.585 314.444Z" fill="#11004D"/>
<path d="M291.501 314.101C291.494 314.13 291.379 314.127 291.253 314.168C291.125 314.207 291.033 314.276 291.011 314.256C290.989 314.24 291.063 314.119 291.221 314.069C291.379 314.019 291.51 314.075 291.501 314.101Z" fill="#11004D"/>
<path d="M292.151 313.943C292.161 313.97 292.111 314.013 292.038 314.039C291.967 314.066 291.899 314.065 291.89 314.038C291.88 314.011 291.93 313.968 292.002 313.942C292.075 313.915 292.141 313.916 292.151 313.943Z" fill="#11004D"/>
<path d="M308.201 313.88L308.323 309.295L316.915 309.469L316.807 316.179L316.274 316.203C313.9 316.287 304.2 316.461 302.625 315.949C300.868 315.377 308.201 313.88 308.201 313.88Z" fill="#FF8687"/>
<path d="M313.694 316.05C313.83 315.334 314.244 314.676 314.827 314.24C315.411 313.804 316.123 313.583 316.847 313.656L316.801 316.057L313.694 316.05Z" fill="#FF6D6E"/>
<path d="M304.616 314.739C304.616 314.739 302.042 315.426 302.353 315.853C302.663 316.28 312.473 316.473 316.808 316.18L316.797 315.987L305.353 315.861C305.353 315.861 305.115 314.77 304.616 314.739Z" fill="#FF6D6E"/>
<path d="M316.933 315.985C316.933 315.989 316.882 315.993 316.784 315.998C316.657 316.003 316.517 316.009 316.36 316.015C315.935 316.025 315.413 316.037 314.797 316.052C313.477 316.074 311.653 316.079 309.639 316.041C307.625 316.002 305.802 315.928 304.484 315.857C303.869 315.819 303.348 315.787 302.924 315.761C302.766 315.749 302.627 315.738 302.5 315.728C302.403 315.72 302.353 315.713 302.353 315.709C302.353 315.706 302.404 315.705 302.501 315.707C302.629 315.711 302.768 315.716 302.925 315.721C303.35 315.738 303.872 315.759 304.488 315.783C305.806 315.836 307.628 315.898 309.641 315.937C311.654 315.974 313.477 315.981 314.797 315.978C315.412 315.977 315.935 315.976 316.359 315.974C316.517 315.976 316.656 315.976 316.784 315.977C316.881 315.979 316.933 315.982 316.933 315.985Z" fill="#11004D"/>
<path d="M305.353 315.994C305.321 315.998 305.305 315.624 305.076 315.243C304.854 314.858 304.537 314.661 304.556 314.635C304.562 314.609 304.928 314.778 305.166 315.19C305.409 315.6 305.379 316.001 305.353 315.994Z" fill="#11004D"/>
<path d="M307.915 314.757C307.89 314.772 307.771 314.623 307.65 314.423C307.528 314.223 307.45 314.049 307.474 314.034C307.499 314.019 307.618 314.169 307.738 314.368C307.861 314.568 307.939 314.743 307.915 314.757Z" fill="#11004D"/>
<path d="M308.617 314.403C308.597 314.424 308.463 314.332 308.318 314.195C308.172 314.06 308.07 313.932 308.09 313.912C308.11 313.89 308.243 313.984 308.389 314.119C308.534 314.255 308.636 314.383 308.617 314.403Z" fill="#11004D"/>
<path d="M309.072 313.601C309.072 313.63 308.87 313.651 308.623 313.649C308.375 313.647 308.174 313.622 308.175 313.593C308.175 313.564 308.376 313.543 308.624 313.545C308.872 313.547 309.072 313.572 309.072 313.601Z" fill="#11004D"/>
<path d="M309.235 313.032C309.244 313.058 309.023 313.153 308.732 313.168C308.439 313.185 308.21 313.115 308.216 313.089C308.221 313.06 308.449 313.08 308.725 313.064C309.003 313.049 309.225 313.003 309.235 313.032Z" fill="#11004D"/>
<path d="M307.637 314.002C307.637 314.014 307.425 314.036 307.085 313.989C306.916 313.964 306.715 313.92 306.5 313.847C306.393 313.806 306.281 313.776 306.166 313.701C306.112 313.664 306.053 313.611 306.033 313.528C306.011 313.444 306.057 313.352 306.12 313.308C306.654 313.045 307.177 313.353 307.367 313.629C307.472 313.771 307.519 313.907 307.54 314.001C307.56 314.096 307.558 314.15 307.551 314.151C307.532 314.157 307.518 313.933 307.309 313.674C307.206 313.548 307.048 313.424 306.843 313.359C306.649 313.297 306.373 313.277 306.185 313.391C306.096 313.454 306.128 313.557 306.224 313.618C306.314 313.678 306.431 313.716 306.532 313.757C306.739 313.832 306.933 313.883 307.098 313.915C307.427 313.981 307.637 313.985 307.637 314.002Z" fill="#11004D"/>
<path d="M307.493 314.027C307.485 314.033 307.407 313.89 307.437 313.642C307.453 313.521 307.501 313.377 307.596 313.242C307.696 313.121 307.824 312.955 308.061 312.969C308.188 312.988 308.248 313.135 308.226 313.228C308.214 313.324 308.169 313.407 308.128 313.472C308.043 313.609 307.947 313.718 307.859 313.801C307.683 313.967 307.546 314.029 307.54 314.018C307.531 314.005 307.651 313.922 307.807 313.75C307.885 313.664 307.968 313.555 308.045 313.423C308.123 313.308 308.179 313.099 308.041 313.071C307.903 313.056 307.759 313.191 307.672 313.299C307.584 313.417 307.533 313.544 307.509 313.655C307.463 313.878 307.511 314.023 307.493 314.027Z" fill="#11004D"/>
<path d="M316.803 313.63C316.801 313.65 316.557 313.603 316.167 313.641C315.783 313.675 315.245 313.823 314.772 314.185C314.3 314.546 314.017 315.027 313.883 315.39C313.744 315.755 313.727 316.003 313.707 316C313.701 316 313.699 315.938 313.71 315.827C313.722 315.716 313.751 315.556 313.812 315.366C313.933 314.986 314.217 314.479 314.708 314.101C315.201 313.725 315.765 313.584 316.162 313.567C316.362 313.557 316.525 313.57 316.635 313.589C316.745 313.606 316.804 313.625 316.803 313.63Z" fill="#11004D"/>
<path d="M315.983 310.038C316.012 310.038 316.03 310.829 316.023 311.804C316.016 312.78 315.988 313.57 315.958 313.57C315.93 313.57 315.912 312.779 315.919 311.803C315.926 310.828 315.954 310.038 315.983 310.038Z" fill="#11004D"/>
<path d="M312.629 315.191C312.632 315.217 312.071 315.298 311.372 315.29C310.674 315.285 310.114 315.192 310.118 315.165C310.121 315.135 310.682 315.18 311.373 315.186C312.065 315.194 312.626 315.16 312.629 315.191Z" fill="#11004D"/>
<path d="M314.313 315.221C314.333 315.242 314.265 315.339 314.205 315.467C314.143 315.593 314.111 315.708 314.082 315.705C314.054 315.704 314.04 315.569 314.11 315.422C314.181 315.275 314.295 315.2 314.313 315.221Z" fill="#11004D"/>
<path d="M314.963 314.444C314.983 314.464 314.926 314.553 314.835 314.641C314.744 314.729 314.655 314.784 314.635 314.763C314.615 314.743 314.672 314.655 314.762 314.566C314.853 314.478 314.943 314.423 314.963 314.444Z" fill="#11004D"/>
<path d="M315.878 314.101C315.872 314.13 315.757 314.127 315.63 314.168C315.502 314.207 315.411 314.276 315.389 314.256C315.367 314.24 315.441 314.119 315.599 314.069C315.757 314.019 315.888 314.075 315.878 314.101Z" fill="#11004D"/>
<path d="M316.529 313.943C316.539 313.97 316.489 314.013 316.416 314.039C316.345 314.066 316.278 314.065 316.268 314.038C316.258 314.011 316.309 313.968 316.38 313.942C316.453 313.915 316.519 313.916 316.529 313.943Z" fill="#11004D"/>
<path d="M282.088 196.007L277.971 257.402V312.777H294.432C294.432 312.777 295.124 265.025 294.691 261.902C294.691 261.902 297.382 214.075 297.684 214.754C298.307 216.153 298.296 256.807 299.219 261.845C300.142 266.882 304.394 312.777 304.394 312.777H320.272L314.944 260.167C314.838 253.827 313.206 198.145 313.206 198.145L282.088 196.007Z" fill="#225EFF"/>
<path d="M319.904 309.627C319.913 309.64 319.715 309.781 319.293 309.842C318.872 309.907 318.247 309.829 317.55 309.558C316.853 309.304 316.087 308.833 315.165 308.704C314.236 308.568 313.268 309.051 312.351 309.67C311.433 310.278 310.47 310.906 309.444 311.006C308.439 311.128 307.546 310.912 306.843 310.688C306.137 310.458 305.595 310.203 305.224 310.024C304.854 309.844 304.657 309.727 304.666 309.707C304.69 309.647 305.518 310.046 306.913 310.458C307.607 310.65 308.47 310.828 309.402 310.697C310.344 310.589 311.232 310.004 312.167 309.386C312.64 309.082 313.116 308.782 313.634 308.592C314.147 308.397 314.699 308.318 315.207 308.395C316.222 308.561 316.973 309.067 317.64 309.336C318.302 309.625 318.882 309.732 319.281 309.711C319.681 309.694 319.894 309.599 319.904 309.627Z" fill="#375A64"/>
<path d="M294.568 309.249C294.543 309.269 294.415 309.049 294.049 308.825C293.69 308.607 293.058 308.42 292.309 308.567C291.554 308.705 290.762 309.201 289.894 309.777C289.455 310.06 288.979 310.357 288.431 310.571C287.889 310.792 287.246 310.892 286.624 310.786C285.375 310.575 284.389 309.922 283.401 309.699C282.416 309.458 281.48 309.612 280.735 309.816C279.242 310.264 278.365 310.726 278.339 310.662C278.329 310.642 278.539 310.515 278.934 310.314C279.329 310.117 279.906 309.832 280.668 309.587C281.422 309.348 282.407 309.154 283.471 309.396C284.527 309.624 285.531 310.265 286.674 310.452C287.827 310.658 288.865 310.052 289.727 309.514C290.597 308.956 291.446 308.45 292.268 308.331C293.087 308.203 293.759 308.446 294.122 308.715C294.491 308.993 294.582 309.245 294.568 309.249Z" fill="#375A64"/>
<path d="M312.08 208.742C312.093 208.778 311.74 208.952 311.118 209.061C310.499 209.172 309.606 209.179 308.671 208.923C307.736 208.663 306.974 208.198 306.499 207.786C306.021 207.373 305.808 207.043 305.837 207.018C305.905 206.935 306.958 208.118 308.761 208.597C310.553 209.11 312.065 208.636 312.08 208.742Z" fill="#375A64"/>
<path d="M284.749 206.345C284.788 206.351 284.79 206.671 284.623 207.155C284.46 207.637 284.093 208.267 283.507 208.792C282.919 209.314 282.251 209.607 281.754 209.714C281.253 209.823 280.936 209.785 280.935 209.746C280.913 209.647 282.184 209.542 283.282 208.54C284.403 207.563 284.653 206.312 284.749 206.345Z" fill="#375A64"/>
<path d="M280.744 175.693L277.428 163.551C277.428 163.551 261.863 167.611 260.841 166.349C255.184 159.356 252.327 149.737 251.435 146.291C251.564 145.794 251.73 145.215 251.956 144.541C252.152 143.964 252.449 143.426 252.826 142.946C253.283 142.366 253.922 141.618 254.399 141.318C254.989 140.946 254.821 140.05 254.189 140.006C253.556 139.962 251.905 140.947 250.68 142.829C249.455 144.712 249.082 141.197 248.922 139.919C248.763 138.64 248.085 134.709 247.653 134.446C247.02 134.062 246.491 134.669 246.68 135.942C246.871 137.231 247.165 141.072 246.486 141.123C245.817 141.175 245.095 134.656 245.095 134.656C245.095 134.656 245.167 133.237 244.38 133.27C242.961 133.331 244.239 140.205 244.376 140.855C244.472 141.308 243.736 141.39 243.659 140.899C243.58 140.393 243.091 134.38 241.644 134.427C240.536 134.464 242.643 140.091 242.052 141.394C241.46 142.698 240.887 136.965 239.829 137.044C239.436 137.073 239.146 137.148 239.95 140.394C240.341 141.969 241.376 144.738 242.358 147.216L242.325 147.224C242.325 147.224 248.105 181.148 263.128 179.254C279.069 177.245 280.744 175.693 280.744 175.693Z" fill="#FFBF9D"/>
<path d="M258.104 209.353L162.887 202.417C160.188 202.221 158.159 199.873 158.356 197.175L162.618 138.675C162.814 135.977 165.162 133.948 167.86 134.144L263.077 141.081C265.777 141.278 267.805 143.625 267.608 146.323L263.346 204.822C263.15 207.522 260.802 209.55 258.104 209.353Z" fill="#00D8D5"/>
<path d="M251.339 156.192C251.048 160.195 247.567 163.203 243.565 162.911C239.563 162.62 236.555 159.138 236.847 155.137C237.139 151.134 240.62 148.126 244.621 148.417C248.623 148.71 251.63 152.19 251.339 156.192Z" fill="#FF2A60"/>
<path d="M252.82 149.359C249.22 149.359 246.169 152.149 245.903 155.796C245.625 159.613 248.503 162.944 252.32 163.223C256.152 163.501 259.47 160.621 259.747 156.805C260.025 152.988 257.146 149.657 253.329 149.377C253.158 149.365 252.989 149.359 252.82 149.359ZM252.83 163.891C252.645 163.891 252.459 163.885 252.273 163.871C248.098 163.566 244.951 159.922 245.254 155.749C245.559 151.575 249.201 148.422 253.376 148.73C257.55 149.034 260.699 152.678 260.396 156.852C260.105 160.839 256.767 163.891 252.83 163.891Z" fill="#FF2A60"/>
<path d="M169.108 178.128L168.684 183.955L168.084 183.911L168.47 178.617L167.096 178.517L167.135 177.984L169.108 178.128Z" fill="#FAFAFA"/>
<path d="M174.717 183.859L174.678 184.391L170.59 184.094L170.621 183.669L173.216 181.473C173.921 180.872 174.075 180.49 174.104 180.09C174.153 179.416 173.709 178.965 172.818 178.9C172.135 178.851 171.596 179.021 171.182 179.433L170.784 179.036C171.271 178.537 172.018 178.289 172.909 178.354C174.09 178.441 174.796 179.095 174.726 180.069C174.684 180.626 174.474 181.113 173.635 181.821L171.512 183.625L174.717 183.859Z" fill="#FAFAFA"/>
<path d="M180.924 183.307L179.758 183.222L179.647 184.754L179.047 184.71L179.159 183.179L175.872 182.939L175.903 182.506L179.272 178.868L179.938 178.917L176.684 182.462L179.215 182.647L179.313 181.298L179.896 181.34L179.797 182.689L180.963 182.774L180.924 183.307Z" fill="#FAFAFA"/>
<path d="M189.856 183.958L188.691 183.872L188.579 185.404L187.98 185.36L188.091 183.829L184.803 183.59L184.835 183.157L188.204 179.518L188.87 179.567L185.617 183.113L188.147 183.297L188.246 181.948L188.828 181.991L188.73 183.34L189.895 183.425L189.856 183.958Z" fill="#FAFAFA"/>
<path d="M194.963 184.145C194.892 185.136 194.143 185.86 192.72 185.756C191.879 185.695 191.102 185.345 190.685 184.855L191.011 184.402C191.357 184.82 192.003 185.152 192.752 185.206C193.743 185.278 194.302 184.833 194.354 184.127C194.408 183.376 193.975 182.877 192.494 182.769L191.254 182.678L191.766 179.779L194.954 180.01L194.916 180.543L192.252 180.349L191.918 182.191L192.667 182.246C194.423 182.373 195.039 183.113 194.963 184.145Z" fill="#FAFAFA"/>
<path d="M200.134 184.513C200.189 183.748 199.659 183.215 198.76 183.15C197.869 183.085 197.222 183.59 197.169 184.314C197.122 184.955 197.61 185.602 198.618 185.675C199.459 185.737 200.077 185.287 200.134 184.513ZM200.726 184.54C200.646 185.631 199.739 186.267 198.606 186.185C197.058 186.072 196.295 184.936 196.429 183.097C196.573 181.116 197.731 180.162 199.312 180.277C199.837 180.316 200.321 180.443 200.671 180.694L200.394 181.16C200.109 180.938 199.715 180.834 199.282 180.803C198.025 180.711 197.159 181.46 197.044 183.041C197.034 183.175 197.031 183.341 197.034 183.518C197.373 182.898 198.081 182.59 198.889 182.649C200.045 182.733 200.803 183.474 200.726 184.54Z" fill="#FAFAFA"/>
<path d="M208.696 185.187C208.625 186.162 207.863 186.859 206.456 186.757C205.615 186.695 204.829 186.345 204.413 185.854L204.739 185.402C205.084 185.82 205.738 186.151 206.495 186.207C207.462 186.277 208.027 185.867 208.08 185.143C208.131 184.443 207.673 183.95 206.591 183.871L206.175 183.841L206.207 183.399L207.969 181.494L204.989 181.276L205.028 180.744L208.774 181.017L208.743 181.441L206.944 183.394C208.187 183.551 208.763 184.255 208.696 185.187Z" fill="#FAFAFA"/>
<path d="M213.952 185.52C214.008 184.754 213.478 184.222 212.579 184.156C211.688 184.092 211.04 184.596 210.988 185.321C210.94 185.962 211.429 186.608 212.436 186.682C213.277 186.743 213.895 186.294 213.952 185.52ZM214.544 185.546C214.464 186.637 213.556 187.274 212.424 187.191C210.876 187.079 210.113 185.943 210.248 184.103C210.392 182.123 211.549 181.169 213.13 181.284C213.655 181.322 214.14 181.449 214.489 181.701L214.212 182.166C213.928 181.945 213.533 181.841 213.1 181.809C211.844 181.717 210.977 182.466 210.862 184.048C210.852 184.181 210.849 184.348 210.852 184.525C211.191 183.905 211.9 183.596 212.706 183.655C213.864 183.74 214.622 184.481 214.544 185.546Z" fill="#FAFAFA"/>
<path d="M220.203 181.849L220.172 182.274L217.339 187.499L216.69 187.452L219.473 182.331L216.477 182.113L216.397 183.204L215.806 183.161L215.924 181.538L220.203 181.849Z" fill="#FAFAFA"/>
<path d="M228.535 182.457L228.504 182.881L225.672 188.106L225.022 188.059L227.805 182.939L224.808 182.72L224.729 183.811L224.138 183.768L224.256 182.145L228.535 182.457Z" fill="#FAFAFA"/>
<path d="M231.821 185.265C232.728 185.332 233.299 184.963 233.345 184.33C233.393 183.672 232.847 183.231 231.973 183.167C231.091 183.103 230.505 183.462 230.457 184.112C230.41 184.753 230.913 185.198 231.821 185.265ZM233.349 187.025C233.401 186.309 232.818 185.815 231.786 185.739C230.753 185.664 230.113 186.07 230.061 186.786C230.008 187.51 230.583 188.004 231.616 188.079C232.647 188.154 233.296 187.749 233.349 187.025ZM233.965 187.078C233.89 188.111 232.969 188.688 231.578 188.586C230.18 188.485 229.377 187.782 229.452 186.749C229.504 186.05 229.939 185.588 230.681 185.399C230.106 185.124 229.815 184.659 229.858 184.051C229.928 183.102 230.779 182.57 232.01 182.659C233.242 182.749 234.024 183.401 233.954 184.349C233.91 184.957 233.544 185.374 232.928 185.563C233.644 185.858 234.015 186.387 233.965 187.078Z" fill="#FAFAFA"/>
<path d="M238.982 184.933C239.029 184.292 238.541 183.646 237.534 183.572C236.693 183.512 236.074 183.96 236.018 184.734C235.962 185.5 236.492 186.032 237.391 186.098C238.282 186.163 238.93 185.657 238.982 184.933ZM239.722 186.15C239.578 188.132 238.42 189.086 236.839 188.97C236.315 188.932 235.83 188.804 235.479 188.553L235.756 188.088C236.042 188.309 236.436 188.413 236.869 188.445C238.126 188.537 238.993 187.788 239.107 186.206C239.117 186.073 239.121 185.905 239.117 185.73C238.779 186.35 238.07 186.657 237.263 186.599C236.105 186.515 235.348 185.774 235.426 184.708C235.505 183.617 236.414 182.98 237.545 183.063C239.094 183.176 239.856 184.311 239.722 186.15Z" fill="#FAFAFA"/>
<path d="M245.841 183.717L245.417 189.545L244.817 189.501L245.203 184.207L243.829 184.106L243.868 183.573L245.841 183.717Z" fill="#FAFAFA"/>
<path d="M251.449 189.448L251.41 189.981L247.322 189.683L247.353 189.258L249.949 187.062C250.654 186.461 250.807 186.079 250.836 185.679C250.885 185.005 250.441 184.554 249.551 184.489C248.868 184.44 248.328 184.61 247.913 185.023L247.515 184.626C248.003 184.126 248.75 183.879 249.64 183.944C250.823 184.03 251.528 184.683 251.457 185.658C251.416 186.215 251.205 186.702 250.367 187.411L248.243 189.215L251.449 189.448Z" fill="#FAFAFA"/>
<path d="M256.759 188.689C256.689 189.662 255.927 190.36 254.52 190.258C253.679 190.196 252.893 189.846 252.476 189.356L252.802 188.902C253.148 189.321 253.802 189.653 254.56 189.708C255.526 189.779 256.091 189.368 256.144 188.644C256.194 187.944 255.737 187.451 254.655 187.372L254.238 187.342L254.271 186.9L256.033 184.995L253.053 184.778L253.092 184.245L256.837 184.519L256.806 184.943L255.007 186.896C256.251 187.053 256.827 187.756 256.759 188.689Z" fill="#FAFAFA"/>
<path d="M211.548 191.435L211.364 193.965L258.047 197.366L258.23 194.836L211.548 191.435Z" fill="white"/>
<path d="M233.921 198.145L233.736 200.676L257.679 202.421L257.864 199.889L233.921 198.145Z" fill="white"/>
<path d="M182.274 174.057L169.118 173.098C167.341 172.968 166.006 171.424 166.136 169.647L166.734 161.446C166.863 159.67 168.408 158.336 170.184 158.465L183.34 159.424C185.116 159.552 186.451 161.097 186.321 162.873L185.725 171.074C185.596 172.851 184.051 174.186 182.274 174.057Z" fill="#FFCD00"/>
<path d="M166.196 168.813L166.265 167.874L176.35 168.609C177.514 168.693 178.53 167.816 178.615 166.651C178.7 165.487 177.809 164.458 176.658 164.387L166.572 163.652L166.641 162.713L176.726 163.449C178.407 163.571 179.676 165.038 179.554 166.719C179.431 168.402 177.963 169.67 176.282 169.548L166.196 168.813Z" fill="white"/>
<path d="M179.05 167.155L179.119 166.216L186.042 166.721L185.972 167.659L179.05 167.155Z" fill="white"/>
<path d="M220.22 154.354L169.843 150.682L170.158 146.358L220.534 150.031L220.22 154.354Z" fill="white"/>
<path d="M287.452 131.541C286.252 132.674 285.727 134.401 285.811 136.049C285.895 137.698 286.534 139.275 287.372 140.696" fill="#11004D"/>
<path d="M301.634 156.939L302.517 136.581L294.356 130.399L286.936 134.026C286.936 134.026 286.689 143.341 286.936 147.381C287.184 151.42 291.256 151.851 291.256 151.851C291.256 151.851 291.135 154.08 291.01 156.425C290.854 159.323 293.053 161.812 295.948 162.014C298.934 162.224 301.505 159.93 301.634 156.939Z" fill="#FFBF9D"/>
<path d="M291.254 151.852C291.254 151.852 293.974 151.882 296.606 150.044C296.606 150.044 295.393 153.01 291.343 152.842L291.254 151.852Z" fill="#FF9A6C"/>
<path d="M301.923 143.819C301.899 143.145 301.897 142.453 302.139 141.824C302.382 141.196 302.923 140.639 303.592 140.57C304.364 140.489 305.109 141.13 305.233 141.896C305.355 142.66 304.909 143.458 304.234 143.838C303.559 144.218 302.702 144.207 301.99 143.901" fill="#FFBF9D"/>
<path d="M303.1 143.23C303.124 143.185 303.318 143.285 303.603 143.198C303.89 143.129 304.185 142.802 304.209 142.339C304.225 142.113 304.176 141.903 304.065 141.801C303.952 141.693 303.769 141.662 303.624 141.67C303.322 141.696 303.109 141.777 303.091 141.726C303.079 141.691 303.227 141.537 303.589 141.434C303.769 141.394 304.03 141.383 304.267 141.565C304.505 141.76 304.564 142.083 304.545 142.362C304.527 142.65 304.417 142.923 304.244 143.117C304.072 143.314 303.838 143.413 303.649 143.432C303.25 143.471 303.067 143.255 303.1 143.23Z" fill="#FF9A6C"/>
<path d="M286.989 131.939C285.199 134.163 287.591 135.567 288.778 136.493C289.696 137.21 292.396 139.075 294.769 138.203C293.931 137.079 292.972 136.582 292.606 135.511C293.575 136.874 294.593 137.907 296.256 138.079C295.925 137.112 295.458 135.143 295.815 135.062C296.256 138.909 299.863 142.144 302.345 140.937C303.315 138.542 302.973 135.69 301.573 133.517C300.174 131.345 297.782 129.873 295.231 129.468C292.301 129.002 289.179 129.938 286.989 131.939Z" fill="#11004D"/>
<path d="M304.047 144.188C304.067 144.153 304.35 144.441 304.229 144.995C304.171 145.257 303.974 145.576 303.627 145.733C303.292 145.892 302.842 145.905 302.459 145.683C302.081 145.456 301.875 145.064 301.831 144.702C301.782 144.333 301.908 144.004 302.062 143.79C302.389 143.349 302.75 143.299 302.754 143.336C302.781 143.383 302.486 143.516 302.266 143.916C302.16 144.113 302.086 144.377 302.139 144.657C302.188 144.934 302.358 145.23 302.631 145.392C302.903 145.551 303.246 145.554 303.5 145.448C303.761 145.346 303.924 145.132 304 144.926C304.156 144.501 303.996 144.206 304.047 144.188Z" fill="#FF4F5B"/>
<path d="M275.937 177.662L282.025 176.394L283.904 186.645C281.35 195.107 279.987 202.612 279.987 202.612L294.252 211.534L296.46 207.353L299.986 210.703L315.196 202.612C313.312 192.844 308.571 190.323 308.571 188.736C308.571 184.217 307.901 188.606 311.735 173.544C315.572 158.482 301.634 156.939 301.634 156.939C301.634 156.939 301.949 159.045 290.88 157.036C286.826 156.301 270.637 164.797 270.637 164.797L275.937 177.662Z" fill="#51C469"/>
<path d="M290.881 157.036C290.881 157.036 290.745 168.179 293.406 167.458C296.065 166.735 301.418 161.939 301.635 156.939L290.881 157.036Z" fill="#FFBF9D"/>
<path d="M291.554 176.571C291.461 176.562 291.564 174.791 291.783 172.617C292.002 170.442 292.256 168.687 292.349 168.696C292.441 168.706 292.339 170.476 292.12 172.651C291.9 174.825 291.647 176.581 291.554 176.571Z" fill="#11004D"/>
<path d="M293.251 175.668C293.158 175.671 293.044 174.253 292.996 172.502C292.948 170.751 292.986 169.329 293.079 169.326C293.173 169.323 293.287 170.742 293.334 172.493C293.382 174.244 293.345 175.666 293.251 175.668Z" fill="#11004D"/>
<path d="M290.866 177.662C290.774 177.662 290.709 177.371 290.853 177.055C290.996 176.738 291.259 176.596 291.319 176.666C291.384 176.735 291.272 176.945 291.161 177.195C291.045 177.443 290.961 177.666 290.866 177.662Z" fill="#11004D"/>
<path d="M291.229 177.662C291.137 177.644 291.103 177.427 291.153 177.176C291.203 176.926 291.318 176.738 291.409 176.756C291.502 176.774 291.535 176.993 291.485 177.243C291.435 177.493 291.32 177.681 291.229 177.662Z" fill="#11004D"/>
<path d="M291.574 177.664C291.48 177.673 291.385 177.477 291.361 177.227C291.337 176.977 291.393 176.767 291.485 176.757C291.578 176.748 291.673 176.944 291.697 177.194C291.723 177.445 291.667 177.655 291.574 177.664Z" fill="#11004D"/>
<path d="M292.135 177.843C292.039 177.842 291.969 177.52 291.802 177.172C291.641 176.82 291.439 176.559 291.5 176.485C291.552 176.41 291.908 176.598 292.108 177.028C292.31 177.457 292.226 177.851 292.135 177.843Z" fill="#11004D"/>
<path d="M293.312 176.666C293.226 176.698 293.052 176.42 293.052 176.032C293.052 175.643 293.226 175.366 293.312 175.398C293.403 175.428 293.388 175.706 293.391 176.032C293.388 176.358 293.403 176.635 293.312 176.666Z" fill="#11004D"/>
<path d="M293.665 176.486C293.571 176.494 293.475 176.278 293.449 176.003C293.423 175.728 293.478 175.497 293.571 175.489C293.664 175.481 293.76 175.696 293.786 175.972C293.812 176.247 293.757 176.477 293.665 176.486Z" fill="#11004D"/>
<path d="M294.218 176.394C294.144 176.451 293.942 176.315 293.768 176.091C293.592 175.865 293.51 175.636 293.584 175.579C293.658 175.521 293.859 175.657 294.035 175.883C294.209 176.107 294.292 176.337 294.218 176.394Z" fill="#11004D"/>
<path d="M294.398 176.213C294.311 176.253 294.15 176.08 293.946 175.902C293.745 175.719 293.554 175.578 293.584 175.487C293.608 175.399 293.908 175.415 294.17 175.648C294.433 175.882 294.483 176.179 294.398 176.213Z" fill="#11004D"/>
<path d="M290.066 158.264C290.044 158.225 290.257 158.126 290.488 158.331C290.592 158.427 290.698 158.597 290.661 158.823C290.627 159.054 290.394 159.233 290.161 159.251C289.929 159.279 289.665 159.15 289.586 158.929C289.506 158.715 289.576 158.528 289.658 158.413C289.845 158.166 290.074 158.222 290.059 158.265C290.064 158.313 289.928 158.359 289.865 158.533C289.793 158.713 289.867 158.941 290.127 158.914C290.387 158.89 290.416 158.651 290.309 158.489C290.214 158.33 290.071 158.313 290.066 158.264Z" fill="#11004D"/>
<path d="M290.323 160.358C290.268 160.434 290.082 160.394 289.907 160.269C289.732 160.143 289.634 159.981 289.688 159.905C289.743 159.829 289.929 159.869 290.104 159.993C290.279 160.119 290.377 160.282 290.323 160.358Z" fill="#11004D"/>
<path d="M290.497 160.805C290.571 160.858 290.486 161.087 290.232 161.186C289.977 161.286 289.759 161.176 289.778 161.087C289.793 160.992 289.946 160.938 290.108 160.872C290.272 160.811 290.422 160.746 290.497 160.805Z" fill="#11004D"/>
<path d="M290.504 161.898C290.575 161.958 290.532 162.128 290.407 162.278C290.282 162.428 290.122 162.501 290.051 162.442C289.979 162.382 290.022 162.212 290.147 162.062C290.273 161.911 290.432 161.838 290.504 161.898Z" fill="#11004D"/>
<path d="M290.226 163.089C290.209 163.052 290.489 162.959 290.793 163.24C290.933 163.371 291.057 163.64 290.969 163.919C290.891 164.181 290.642 164.448 290.281 164.451C289.925 164.441 289.669 164.18 289.604 163.897C289.534 163.596 289.725 163.337 289.895 163.248C290.272 163.04 290.522 163.257 290.481 163.283C290.464 163.328 290.249 163.257 290.032 163.444C289.929 163.534 289.858 163.677 289.907 163.821C289.947 163.967 290.116 164.116 290.284 164.113C290.451 164.117 290.617 163.974 290.672 163.821C290.735 163.669 290.691 163.511 290.611 163.397C290.445 163.161 290.22 163.139 290.226 163.089Z" fill="#11004D"/>
<path d="M290.956 164.978C290.997 165.064 290.857 165.218 290.703 165.397C290.546 165.573 290.412 165.733 290.322 165.703C290.234 165.677 290.243 165.408 290.449 165.175C290.653 164.94 290.918 164.895 290.956 164.978Z" fill="#11004D"/>
<path d="M291.32 166.156C291.407 166.185 291.39 166.45 291.188 166.681C290.986 166.912 290.726 166.964 290.685 166.881C290.641 166.797 290.778 166.638 290.933 166.458C291.091 166.28 291.23 166.124 291.32 166.156Z" fill="#11004D"/>
<path d="M291.516 168.057C291.423 168.066 291.328 167.849 291.303 167.574C291.278 167.299 291.334 167.069 291.427 167.061C291.52 167.052 291.616 167.268 291.64 167.544C291.665 167.819 291.609 168.049 291.516 168.057Z" fill="#11004D"/>
<path d="M294.671 168.331C294.625 168.412 294.445 168.396 294.27 168.296C294.095 168.196 293.991 168.049 294.037 167.968C294.084 167.887 294.263 167.902 294.438 168.002C294.613 168.102 294.718 168.249 294.671 168.331Z" fill="#11004D"/>
<path d="M295.765 167.07C295.832 167.136 295.725 167.352 295.526 167.553C295.326 167.754 295.111 167.864 295.045 167.799C294.978 167.733 295.086 167.516 295.285 167.315C295.484 167.114 295.699 167.004 295.765 167.07Z" fill="#11004D"/>
<path d="M296.665 166.337C296.672 166.287 296.832 166.262 297.083 166.265H297.114L297.159 166.304C297.27 166.401 297.329 166.577 297.293 166.75C297.27 166.92 297.106 167.127 296.872 167.143C296.63 167.159 296.428 167.021 296.346 166.827C296.264 166.621 296.357 166.431 296.453 166.342C296.665 166.146 296.864 166.243 296.841 166.283C296.837 166.329 296.709 166.353 296.638 166.494C296.601 166.561 296.593 166.644 296.63 166.699C296.662 166.758 296.761 166.815 296.841 166.806C296.976 166.81 297.043 166.567 296.973 166.479L297.049 166.518C296.806 166.454 296.657 166.388 296.665 166.337Z" fill="#11004D"/>
<path d="M297.593 166.161C297.501 166.142 297.468 165.924 297.518 165.674C297.569 165.424 297.684 165.236 297.775 165.255C297.867 165.273 297.9 165.491 297.85 165.741C297.799 165.991 297.684 166.179 297.593 166.161Z" fill="#11004D"/>
<path d="M299.02 165.159C298.982 165.245 298.768 165.233 298.544 165.133C298.318 165.033 298.167 164.883 298.205 164.797C298.243 164.712 298.456 164.724 298.681 164.824C298.906 164.924 299.058 165.074 299.02 165.159Z" fill="#11004D"/>
<path d="M299.178 163.926C299.219 163.952 299.214 164.044 299.29 164.127C299.379 164.217 299.466 164.234 299.539 164.123C299.605 164.008 299.55 163.938 299.429 163.899C299.321 163.869 299.241 163.916 299.2 163.891C299.157 163.879 299.193 163.705 299.422 163.66C299.527 163.643 299.678 163.659 299.798 163.789C299.923 163.922 299.924 164.15 299.826 164.299C299.737 164.454 299.535 164.557 299.359 164.505C299.188 164.456 299.107 164.33 299.073 164.229C299.009 164.005 299.148 163.894 299.178 163.926Z" fill="#11004D"/>
<path d="M300.173 162.903C300.084 162.934 299.97 162.837 299.919 162.687C299.868 162.538 299.898 162.392 299.986 162.361C300.075 162.331 300.187 162.428 300.239 162.578C300.291 162.727 300.261 162.873 300.173 162.903Z" fill="#11004D"/>
<path d="M301.104 161.988C301.058 162.07 300.878 162.054 300.703 161.954C300.527 161.854 300.423 161.707 300.469 161.626C300.516 161.545 300.696 161.56 300.871 161.66C301.046 161.76 301.15 161.907 301.104 161.988Z" fill="#11004D"/>
<path d="M301.737 160.63C301.775 160.715 301.623 160.866 301.399 160.966C301.173 161.066 300.96 161.077 300.922 160.992C300.884 160.906 301.035 160.756 301.261 160.656C301.486 160.556 301.699 160.545 301.737 160.63Z" fill="#11004D"/>
<path d="M302.034 158.996C302.008 158.96 302.155 158.843 302.373 158.96C302.471 159.016 302.585 159.129 302.599 159.314C302.616 159.505 302.471 159.694 302.293 159.757C302.119 159.83 301.884 159.787 301.769 159.633C301.656 159.486 301.664 159.326 301.699 159.219C301.783 158.986 301.969 158.975 301.975 159.019C301.994 159.063 301.924 159.138 301.934 159.265C301.946 159.403 302.022 159.496 302.171 159.441C302.319 159.382 302.314 159.262 302.23 159.151C302.152 159.051 302.049 159.041 302.034 158.996Z" fill="#11004D"/>
<path d="M302.922 157.576C302.943 157.667 302.777 157.782 302.552 157.833C302.327 157.884 302.128 157.852 302.107 157.761C302.087 157.67 302.253 157.554 302.477 157.503C302.702 157.452 302.902 157.485 302.922 157.576Z" fill="#11004D"/>
<path d="M302.01 157.096C302.13 157.005 302.251 156.915 302.372 156.825L302.01 157.096Z" fill="#11004D"/>
<path d="M272.508 166.364C272.419 166.336 272.39 166.176 272.443 166.008C272.497 165.84 272.613 165.727 272.702 165.756C272.791 165.784 272.819 165.943 272.766 166.111C272.712 166.279 272.597 166.392 272.508 166.364Z" fill="#11004D"/>
<path d="M273.286 167.303C273.258 167.269 273.402 167.142 273.634 167.247C273.739 167.299 273.863 167.406 273.894 167.594C273.927 167.786 273.799 167.993 273.624 168.077C273.453 168.17 273.211 168.154 273.074 168.014C272.94 167.88 272.924 167.716 272.944 167.601C272.994 167.351 273.181 167.308 273.192 167.351C273.218 167.391 273.156 167.48 273.183 167.614C273.212 167.757 273.313 167.855 273.469 167.777C273.624 167.696 273.604 167.556 273.505 167.448C273.412 167.349 273.303 167.348 273.286 167.303Z" fill="#11004D"/>
<path d="M274.249 169.43C274.213 169.516 274.012 169.514 273.801 169.426C273.588 169.337 273.446 169.195 273.481 169.109C273.517 169.023 273.719 169.024 273.93 169.113C274.143 169.202 274.286 169.343 274.249 169.43Z" fill="#11004D"/>
<path d="M274.49 170.731C274.462 170.82 274.303 170.848 274.135 170.794C273.967 170.74 273.854 170.624 273.883 170.536C273.911 170.447 274.071 170.419 274.238 170.473C274.406 170.527 274.52 170.642 274.49 170.731Z" fill="#11004D"/>
<path d="M274.887 171.624C274.967 171.671 274.946 171.858 274.839 172.042C274.731 172.226 274.578 172.337 274.498 172.29C274.417 172.243 274.439 172.056 274.546 171.871C274.653 171.688 274.806 171.577 274.887 171.624Z" fill="#11004D"/>
<path d="M275.121 172.515C275.077 172.498 275.232 172.274 275.564 172.366C275.713 172.409 275.892 172.523 275.971 172.756C276.061 172.994 275.887 173.314 275.634 173.394C275.395 173.485 275.112 173.444 274.941 173.253C274.778 173.062 274.784 172.806 274.923 172.654C275.089 172.495 275.273 172.578 275.331 172.648C275.401 172.732 275.367 172.797 275.348 172.794C275.324 172.796 275.299 172.762 275.251 172.753C275.207 172.74 275.119 172.755 275.108 172.806C275.08 172.854 275.093 172.981 275.169 173.04C275.234 173.104 275.383 173.128 275.511 173.078C275.779 172.982 275.67 172.687 275.475 172.589C275.295 172.479 275.152 172.554 275.121 172.515Z" fill="#11004D"/>
<path d="M276.059 174.196C276.121 174.266 276.069 174.414 275.941 174.527C275.814 174.64 275.661 174.675 275.598 174.605C275.536 174.535 275.589 174.387 275.717 174.274C275.844 174.161 275.997 174.126 276.059 174.196Z" fill="#11004D"/>
<path d="M276.438 175.326C276.506 175.39 276.455 175.555 276.324 175.694C276.193 175.834 276.031 175.895 275.963 175.831C275.895 175.768 275.946 175.603 276.077 175.462C276.208 175.323 276.371 175.262 276.438 175.326Z" fill="#11004D"/>
<path d="M283.07 204.259C282.988 204.304 282.818 204.152 282.689 203.92C282.56 203.688 282.521 203.462 282.603 203.417C282.684 203.372 282.856 203.523 282.985 203.756C283.113 203.988 283.152 204.213 283.07 204.259Z" fill="#11004D"/>
<path d="M283.631 204.259C283.546 204.297 283.393 204.139 283.29 203.907C283.186 203.675 283.172 203.456 283.257 203.417C283.342 203.379 283.495 203.537 283.598 203.769C283.702 204.001 283.717 204.22 283.631 204.259Z" fill="#11004D"/>
<path d="M284.435 204.676C284.46 204.716 284.424 204.792 284.458 204.885C284.501 204.99 284.553 205.024 284.646 204.97C284.737 204.91 284.731 204.85 284.656 204.764C284.588 204.692 284.503 204.69 284.479 204.648C284.448 204.617 284.553 204.488 284.762 204.549C284.855 204.58 284.974 204.658 285.019 204.819C285.066 204.985 284.969 205.176 284.824 205.258C284.685 205.35 284.47 205.351 284.343 205.233C284.22 205.122 284.204 204.981 284.218 204.883C284.258 204.668 284.421 204.634 284.435 204.676Z" fill="#11004D"/>
<path d="M286.436 205.1C286.491 205.174 286.369 205.36 286.163 205.516C285.957 205.67 285.744 205.735 285.688 205.66C285.632 205.586 285.753 205.399 285.961 205.245C286.167 205.089 286.38 205.025 286.436 205.1Z" fill="#11004D"/>
<path d="M287.089 205.754C287.131 205.838 287.04 205.968 286.885 206.045C286.73 206.123 286.57 206.118 286.529 206.035C286.487 205.951 286.579 205.821 286.733 205.742C286.888 205.665 287.049 205.67 287.089 205.754Z" fill="#11004D"/>
<path d="M288.009 206.784C287.916 206.798 287.82 206.663 287.794 206.481C287.768 206.301 287.821 206.144 287.914 206.13C288.007 206.117 288.103 206.253 288.129 206.433C288.155 206.613 288.101 206.771 288.009 206.784Z" fill="#11004D"/>
<path d="M289.498 206.761C289.522 206.803 289.459 206.887 289.486 207.015C289.518 207.155 289.611 207.238 289.752 207.153C289.891 207.064 289.857 206.943 289.744 206.854C289.641 206.774 289.538 206.793 289.511 206.754C289.475 206.726 289.592 206.571 289.837 206.634C289.948 206.666 290.089 206.75 290.146 206.934C290.206 207.121 290.097 207.343 289.931 207.44C289.771 207.547 289.524 207.547 289.382 207.411C289.242 207.28 289.228 207.115 289.247 207.002C289.299 206.754 289.489 206.718 289.498 206.761Z" fill="#11004D"/>
<path d="M291.27 207.445C291.331 207.516 291.234 207.7 291.054 207.857C290.873 208.012 290.677 208.081 290.616 208.011C290.554 207.941 290.651 207.756 290.832 207.6C291.013 207.444 291.208 207.375 291.27 207.445Z" fill="#11004D"/>
<path d="M292.433 208.139C292.499 208.204 292.394 208.41 292.154 208.517C291.914 208.626 291.691 208.567 291.686 208.476C291.679 208.381 291.834 208.292 292.015 208.209C292.198 208.129 292.368 208.071 292.433 208.139Z" fill="#11004D"/>
<path d="M293.317 209.41C293.228 209.441 293.114 209.339 293.061 209.183C293.009 209.029 293.038 208.879 293.127 208.849C293.215 208.819 293.329 208.92 293.382 209.075C293.435 209.231 293.406 209.38 293.317 209.41Z" fill="#11004D"/>
<path d="M294.321 208.811C294.279 208.794 294.358 208.616 294.605 208.631C294.716 208.642 294.871 208.697 294.953 208.874C295.04 209.055 294.934 209.296 294.769 209.388C294.615 209.495 294.349 209.488 294.225 209.32C294.103 209.156 294.142 208.99 294.192 208.891C294.316 208.665 294.522 208.715 294.503 208.761C294.503 208.808 294.422 208.856 294.416 208.974C294.416 209.111 294.466 209.168 294.59 209.1C294.709 209.022 294.672 208.937 294.555 208.865C294.448 208.807 294.357 208.844 294.321 208.811Z" fill="#11004D"/>
<path d="M295.256 207.902C295.18 207.956 295.044 207.894 294.953 207.765C294.862 207.636 294.85 207.488 294.926 207.434C295.003 207.38 295.138 207.442 295.229 207.57C295.321 207.699 295.332 207.848 295.256 207.902Z" fill="#11004D"/>
<path d="M295.718 207.156C295.651 207.223 295.515 207.192 295.41 207.088C295.307 206.984 295.276 206.847 295.342 206.781C295.408 206.715 295.546 206.745 295.65 206.849C295.754 206.953 295.784 207.09 295.718 207.156Z" fill="#11004D"/>
<path d="M296.238 205.723C296.194 205.7 296.291 205.547 296.492 205.618C296.577 205.651 296.69 205.733 296.704 205.905C296.712 206.079 296.562 206.226 296.412 206.253C296.264 206.295 296.073 206.224 296.003 206.088C295.93 205.958 295.952 205.835 295.988 205.755C296.071 205.586 296.208 205.582 296.221 205.624C296.244 205.665 296.207 205.733 296.219 205.818C296.223 205.859 296.241 205.902 296.262 205.916C296.281 205.928 296.295 205.93 296.336 205.924C296.377 205.913 296.384 205.9 296.392 205.9C296.404 205.899 296.397 205.854 296.374 205.826C296.335 205.763 296.273 205.756 296.238 205.723Z" fill="#11004D"/>
<path d="M297.265 206.781C297.174 206.761 297.121 206.65 297.147 206.533C297.172 206.417 297.268 206.339 297.359 206.359C297.45 206.38 297.503 206.491 297.477 206.606C297.451 206.723 297.357 206.801 297.265 206.781Z" fill="#11004D"/>
<path d="M297.734 207.344C297.657 207.291 297.644 207.172 297.662 207.064C297.684 206.956 297.737 206.851 297.829 206.828C297.918 206.804 298.029 206.939 297.995 207.125C297.961 207.31 297.809 207.398 297.734 207.344Z" fill="#11004D"/>
<path d="M298.391 208.094C298.341 208.174 298.222 208.19 298.11 208.172C297.998 208.15 297.893 208.093 297.875 208C297.856 207.91 297.991 207.807 298.171 207.839C298.351 207.872 298.441 208.016 298.391 208.094Z" fill="#11004D"/>
<path d="M298.926 208.733C298.893 208.703 298.978 208.572 299.182 208.606C299.274 208.625 299.397 208.685 299.456 208.837C299.521 208.993 299.43 209.199 299.288 209.277C299.155 209.369 298.925 209.366 298.811 209.221C298.701 209.075 298.736 208.932 298.78 208.848C298.89 208.653 299.072 208.705 299.052 208.751C299.049 208.799 298.997 208.845 299.005 208.928C299.004 208.968 299.029 209.015 299.042 209.011C299.05 209.009 299.067 209.013 299.109 208.99C299.148 208.961 299.155 208.947 299.157 208.927C299.161 208.903 299.135 208.858 299.101 208.831C299.033 208.77 298.954 208.772 298.926 208.733Z" fill="#11004D"/>
<path d="M299.759 210.018C299.666 210.008 299.602 209.905 299.614 209.788C299.628 209.672 299.714 209.585 299.806 209.596C299.899 209.606 299.964 209.709 299.951 209.826C299.938 209.943 299.852 210.028 299.759 210.018Z" fill="#11004D"/>
<path d="M301.02 209.352C300.999 209.443 300.835 209.484 300.654 209.443C300.473 209.401 300.344 209.293 300.365 209.203C300.386 209.111 300.549 209.071 300.73 209.113C300.91 209.154 301.04 209.261 301.02 209.352Z" fill="#11004D"/>
<path d="M301.494 209.125C301.401 209.134 301.316 209.036 301.304 208.906C301.291 208.777 301.357 208.665 301.451 208.656C301.543 208.648 301.629 208.745 301.641 208.875C301.653 209.005 301.587 209.116 301.494 209.125Z" fill="#11004D"/>
<path d="M302.377 208.422C302.283 208.422 302.208 208.318 302.208 208.188C302.208 208.059 302.283 207.953 302.377 207.953C302.471 207.953 302.546 208.059 302.546 208.188C302.546 208.318 302.471 208.422 302.377 208.422Z" fill="#11004D"/>
<path d="M303.059 207.465C303.025 207.432 303.177 207.301 303.388 207.432C303.479 207.494 303.589 207.615 303.567 207.812C303.547 208.016 303.321 208.156 303.137 208.139C302.953 208.141 302.739 207.983 302.736 207.777C302.732 207.577 302.856 207.466 302.951 207.415C303.177 207.305 303.315 207.455 303.275 207.484C303.249 207.525 303.157 207.521 303.088 207.612C303.052 207.653 303.031 207.72 303.046 207.746C303.055 207.771 303.082 207.793 303.151 207.801C303.221 207.799 303.25 207.779 303.261 207.753C303.278 207.727 303.263 207.659 303.232 207.614C303.172 207.516 303.079 207.508 303.059 207.465Z" fill="#11004D"/>
<path d="M304.815 206.923C304.747 206.99 304.621 206.973 304.497 206.957C304.374 206.934 304.249 206.91 304.205 206.826C304.157 206.746 304.312 206.585 304.55 206.623C304.788 206.661 304.885 206.862 304.815 206.923Z" fill="#11004D"/>
<path d="M305.707 206.453C305.663 206.537 305.484 206.528 305.288 206.495C305.094 206.46 304.923 206.406 304.909 206.312C304.896 206.221 305.095 206.117 305.347 206.163C305.6 206.206 305.751 206.372 305.707 206.453Z" fill="#11004D"/>
<path d="M306.215 206.03C306.122 206.021 306.057 205.909 306.068 205.78C306.081 205.65 306.166 205.552 306.259 205.561C306.352 205.569 306.418 205.682 306.406 205.811C306.393 205.94 306.309 206.039 306.215 206.03Z" fill="#11004D"/>
<path d="M306.984 204.841C306.95 204.814 307.047 204.666 307.281 204.714C307.387 204.734 307.538 204.843 307.559 205.024C307.581 205.189 307.505 205.394 307.291 205.477C307.067 205.545 306.88 205.424 306.8 205.271C306.707 205.102 306.796 204.909 306.89 204.849C307.097 204.701 307.251 204.834 307.216 204.868C307.197 204.909 307.105 204.924 307.061 205.017C307.039 205.065 307.047 205.094 307.071 205.118C307.094 205.149 307.162 205.17 307.18 205.157C307.205 205.152 307.247 205.096 307.248 205.051C307.255 205.011 307.237 204.97 307.193 204.936C307.108 204.868 307.009 204.88 306.984 204.841Z" fill="#11004D"/>
<path d="M308.092 204.81C307.999 204.792 307.946 204.672 307.972 204.543C307.997 204.414 308.092 204.323 308.184 204.34C308.275 204.358 308.329 204.478 308.303 204.607C308.278 204.738 308.183 204.827 308.092 204.81Z" fill="#11004D"/>
<path d="M309.037 204.014C308.944 204.003 308.88 203.901 308.892 203.784C308.906 203.668 308.991 203.582 309.084 203.592C309.177 203.602 309.241 203.705 309.228 203.821C309.215 203.938 309.13 204.025 309.037 204.014Z" fill="#11004D"/>
<path d="M310.359 203.249C310.308 203.328 310.147 203.315 309.978 203.277C309.809 203.236 309.659 203.178 309.647 203.084C309.634 202.993 309.821 202.894 310.054 202.948C310.287 203.001 310.411 203.173 310.359 203.249Z" fill="#11004D"/>
<path d="M310.993 202.799C310.909 202.84 310.781 202.719 310.831 202.547C310.884 202.376 311.057 202.345 311.105 202.426C311.157 202.505 311.168 202.592 311.155 202.644C311.137 202.696 311.08 202.761 310.993 202.799Z" fill="#11004D"/>
<path d="M311.765 202.046C311.672 202.033 311.609 201.93 311.623 201.815C311.638 201.698 311.725 201.612 311.817 201.624C311.91 201.636 311.973 201.739 311.959 201.855C311.945 201.972 311.858 202.057 311.765 202.046Z" fill="#11004D"/>
<path d="M302.395 167.54L298.085 171.874L308.519 182.131C308.519 182.131 310.644 175.946 312.125 170.503C313.172 166.655 302.395 167.54 302.395 167.54Z" fill="#51C469"/>
<path d="M300.712 172.28C300.619 172.289 300.524 172.095 300.499 171.846C300.474 171.596 300.529 171.387 300.622 171.377C300.715 171.368 300.81 171.563 300.835 171.812C300.86 172.061 300.805 172.271 300.712 172.28Z" fill="#11004D"/>
<path d="M301.706 172.461C301.706 172.554 301.544 172.63 301.344 172.63C301.146 172.63 300.984 172.554 300.984 172.461C300.984 172.367 301.146 172.292 301.344 172.292C301.544 172.292 301.706 172.367 301.706 172.461Z" fill="#11004D"/>
<path d="M301.976 173.905C301.898 173.853 301.903 173.702 301.9 173.544C301.903 173.386 301.898 173.236 301.976 173.183C302.05 173.128 302.237 173.278 302.238 173.544C302.237 173.811 302.05 173.961 301.976 173.905Z" fill="#11004D"/>
<path d="M302.837 174.047C302.798 174.023 302.944 173.843 303.229 173.932C303.356 173.977 303.521 174.086 303.566 174.309C303.619 174.54 303.427 174.79 303.207 174.843C302.997 174.921 302.69 174.83 302.609 174.593C302.531 174.361 302.644 174.186 302.742 174.094C302.848 173.997 302.976 173.97 303.054 173.99C303.133 174.009 303.158 174.051 303.15 174.07C303.131 174.114 303.003 174.106 302.921 174.253C302.827 174.412 302.884 174.581 303.107 174.52C303.328 174.453 303.278 174.256 303.129 174.15C302.99 174.048 302.863 174.088 302.837 174.047Z" fill="#11004D"/>
<path d="M303.962 175.801C303.873 175.772 303.842 175.627 303.892 175.477C303.942 175.328 304.054 175.23 304.143 175.26C304.232 175.29 304.263 175.434 304.213 175.584C304.163 175.734 304.051 175.831 303.962 175.801Z" fill="#11004D"/>
<path d="M304.934 175.617C305.026 175.633 305.059 175.888 305.007 176.187C304.956 176.486 304.839 176.716 304.748 176.7C304.655 176.684 304.623 176.428 304.674 176.13C304.726 175.831 304.842 175.601 304.934 175.617Z" fill="#11004D"/>
<path d="M305.949 176.794C305.96 176.887 305.786 176.983 305.561 177.008C305.337 177.033 305.147 176.978 305.136 176.885C305.126 176.792 305.299 176.696 305.524 176.672C305.748 176.646 305.939 176.702 305.949 176.794Z" fill="#11004D"/>
<path d="M306.388 177.304C306.371 177.267 306.527 177.162 306.774 177.266C306.888 177.318 307.029 177.426 307.079 177.624C307.14 177.82 307.009 178.086 306.81 178.172C306.626 178.282 306.322 178.252 306.198 178.038C306.077 177.808 306.198 177.625 306.288 177.538C306.387 177.44 306.522 177.414 306.599 177.445C306.676 177.476 306.689 177.524 306.678 177.539C306.647 177.576 306.538 177.554 306.471 177.692C306.391 177.846 306.459 177.953 306.654 177.872C306.841 177.782 306.783 177.587 306.651 177.472C306.526 177.359 306.397 177.353 306.388 177.304Z" fill="#11004D"/>
<path d="M307.483 179.593C307.39 179.593 307.315 179.351 307.315 179.052C307.315 178.753 307.39 178.51 307.483 178.51C307.578 178.51 307.653 178.753 307.653 179.052C307.653 179.351 307.578 179.593 307.483 179.593Z" fill="#11004D"/>
<path d="M305.91 163.094C305.948 163.119 305.611 163.671 304.976 164.49C304.344 165.312 303.425 166.408 302.383 167.593C301.339 168.778 300.371 169.829 299.66 170.578C298.947 171.328 298.493 171.78 298.458 171.749C298.424 171.718 298.814 171.21 299.481 170.419C300.148 169.629 301.087 168.552 302.129 167.37C303.127 166.233 304.03 165.204 304.79 164.338C305.47 163.562 305.871 163.066 305.91 163.094Z" fill="#11004D"/>
<path d="M313.205 201.97C313.183 202.061 313.008 202.096 312.814 202.048C312.622 202 312.484 201.888 312.506 201.797C312.529 201.707 312.704 201.671 312.896 201.72C313.089 201.768 313.228 201.879 313.205 201.97Z" fill="#11004D"/>
<path d="M313.702 201.177C313.683 201.142 313.737 201.04 313.924 201.03C314.01 201.025 314.158 201.087 314.215 201.226C314.244 201.292 314.259 201.379 314.223 201.473C314.187 201.569 314.096 201.639 314.01 201.66C313.683 201.74 313.409 201.425 313.548 201.177C313.611 201.082 313.705 201.06 313.765 201.076C313.826 201.093 313.835 201.134 313.824 201.151C313.793 201.184 313.75 201.227 313.764 201.279C313.768 201.281 313.858 201.353 313.92 201.333C313.914 201.321 313.956 201.374 313.938 201.354C313.906 201.348 313.927 201.35 313.923 201.335C313.923 201.311 313.919 201.29 313.882 201.266C313.813 201.222 313.72 201.221 313.702 201.177Z" fill="#11004D"/>
<path d="M258.411 178.147C258.034 176.92 253.378 174.401 254.079 173.716C254.992 172.823 258.821 176.564 259.167 176.857C259.505 177.141 259.936 176.647 259.609 176.401C259.139 176.046 254.296 172.196 255.184 171.311C255.677 170.82 256.459 171.813 256.459 171.813C256.459 171.813 260.734 175.756 261.14 175.324C261.552 174.884 259.118 172.483 258.241 171.732C257.376 170.991 257.366 170.269 258.003 170.149C258.437 170.068 261.174 172.301 262.023 173.065C262.872 173.827 265.168 175.962 264.867 173.969C264.862 173.938 264.862 173.909 264.857 173.877C264.508 171.923 264.885 170.302 265.314 169.907C265.731 169.522 266.386 169.88 266.421 170.451C266.433 170.543 266.434 170.638 266.406 170.74C266.395 170.781 266.39 170.84 266.381 170.887C266.33 171.455 266.421 172.279 266.516 172.917C266.605 173.52 266.793 174.105 267.079 174.643C267.41 175.265 267.719 175.789 267.99 176.222C271.105 177.939 280.063 182.468 289.034 183.156C290.653 183.28 298.877 172.652 298.877 172.652L306.933 180.572C305.845 182.436 305.465 182.862 299.987 190.354C291.05 202.577 262.931 182.338 262.931 182.338L262.668 182.209C260.425 181.063 257.756 179.64 256.457 178.728C254.039 177.03 254.184 176.807 254.423 176.552C255.067 175.869 258.785 179.374 258.411 178.147Z" fill="#FFBF9D"/>
</g>
</svg>
